{"glyphs":{"0":{"ha":1064,"x_min":71,"x_max":969,"o":"m 969 886 l 960 886 l 860 833 l 860 86 l 728 86 l 457 33 l 374 -11 l 339 -11 q 206 56 290 26 q 71 86 122 86 l 71 106 q 137 121 103 106 q 181 158 171 136 l 181 906 l 313 906 l 583 969 l 654 1000 l 689 1000 l 860 906 l 969 906 l 969 886 m 728 108 l 728 842 l 567 936 l 313 875 l 313 147 l 461 56 l 728 108 z "},"1":{"ha":557,"x_min":71,"x_max":467,"o":"m 467 94 l 293 -11 q 190 54 258 22 q 71 86 121 86 l 71 94 l 81 94 l 178 147 l 178 758 l 71 889 l 81 906 l 251 989 l 300 906 l 300 147 q 364 113 315 128 q 467 94 413 99 z "},"2":{"ha":1025,"x_min":74,"x_max":928,"o":"m 928 86 l 818 -11 q 625 19 776 6 q 483 31 576 24 q 271 23 367 31 q 122 -11 175 15 l 74 -11 l 74 253 q 189 433 74 339 q 393 528 304 528 l 686 528 l 686 875 l 532 939 q 467 875 515 908 q 393 842 418 842 l 235 844 l 135 886 l 139 908 q 323 933 261 908 q 406 1000 385 957 l 442 1000 l 696 906 l 806 906 l 806 506 l 415 506 q 208 410 317 506 q 100 233 100 314 l 100 31 l 107 22 q 336 118 222 89 q 576 147 450 147 q 785 138 715 147 q 928 106 854 128 l 928 86 z "},"3":{"ha":954,"x_min":78,"x_max":818,"o":"m 818 86 l 696 86 l 503 33 l 476 33 l 393 -11 l 358 -11 q 280 55 335 24 q 193 86 225 86 l 78 86 l 78 106 l 174 147 l 332 147 q 406 119 358 147 q 476 61 454 92 l 686 117 l 686 400 l 474 486 l 442 464 l 406 464 l 406 483 l 432 483 l 432 506 l 406 506 l 406 528 l 442 528 l 474 506 l 686 589 l 686 875 l 486 939 l 381 844 l 235 844 l 139 886 l 139 906 q 272 938 207 906 q 358 1000 324 963 l 393 1000 l 696 906 l 818 906 l 818 558 l 696 558 l 519 497 l 696 433 l 818 433 l 818 86 z "},"4":{"ha":1099,"x_min":88,"x_max":989,"o":"m 989 222 l 967 222 l 915 275 l 718 275 l 718 158 q 763 123 718 140 q 867 106 807 106 l 876 106 l 876 86 l 718 -11 l 696 -11 q 600 56 638 36 q 476 86 542 86 l 476 106 l 490 106 l 586 158 l 586 275 l 88 275 l 88 528 l 635 1000 l 657 1000 l 767 906 l 767 875 l 718 803 l 718 294 l 915 294 l 967 336 l 989 336 l 989 222 m 583 297 l 583 917 l 222 611 l 222 297 l 583 297 z "},"5":{"ha":1008,"x_min":74,"x_max":928,"o":"m 928 600 l 915 600 l 818 550 l 818 86 l 696 86 l 513 42 l 393 -11 l 358 -11 q 269 58 328 29 q 183 86 211 86 l 74 86 l 74 106 l 174 147 l 329 147 q 410 120 354 147 q 490 64 465 93 l 686 117 l 686 550 l 586 600 l 513 600 l 344 558 l 135 558 l 135 989 l 818 989 q 751 935 807 969 q 647 886 694 900 l 161 886 l 161 581 l 319 581 l 515 619 l 686 717 l 708 717 l 867 619 l 928 619 l 928 600 z "},"6":{"ha":1064,"x_min":88,"x_max":989,"o":"m 989 558 l 867 497 l 867 86 l 744 86 l 476 33 l 390 -11 l 354 -11 q 280 53 333 19 q 200 86 226 86 l 88 86 l 88 106 l 100 106 l 210 169 l 210 906 l 319 906 l 622 1000 l 657 1000 l 818 906 l 876 906 l 876 886 l 867 886 l 779 844 l 635 844 l 532 939 l 329 875 l 329 522 l 583 581 l 744 672 l 767 672 l 915 581 l 989 581 l 989 558 m 744 108 l 744 517 l 644 558 l 574 558 l 329 500 l 329 153 q 408 122 360 153 q 464 61 457 92 l 476 56 l 744 108 z "},"7":{"ha":989,"x_min":58,"x_max":908,"o":"m 908 981 q 836 872 875 922 q 742 761 797 822 q 600 611 671 686 q 508 470 540 549 q 476 331 476 392 q 483 183 476 222 q 519 89 489 143 l 413 -11 l 390 -11 q 350 72 365 -11 q 335 231 335 154 q 381 427 335 336 q 542 614 428 518 q 747 802 667 718 q 864 953 826 886 l 844 953 q 643 874 774 903 q 381 844 513 844 q 197 858 265 844 q 58 906 129 872 l 168 1000 q 310 969 236 979 q 486 958 385 958 q 699 969 594 958 q 864 1000 804 981 l 908 1000 l 908 981 z "},"8":{"ha":1025,"x_min":71,"x_max":969,"o":"m 969 886 l 960 886 l 860 833 l 860 558 l 738 558 l 567 497 l 738 433 l 860 433 l 860 86 l 728 86 l 457 33 l 374 -11 l 339 -11 q 239 57 282 38 q 71 86 172 86 l 71 106 l 81 106 l 181 158 l 181 433 l 303 433 l 474 494 l 303 558 l 181 558 l 181 864 l 313 864 l 557 906 l 728 1000 l 751 1000 l 908 906 l 969 906 l 969 886 m 728 581 l 728 842 l 642 883 l 544 883 l 313 842 l 313 581 l 519 508 l 728 581 m 728 108 l 728 411 l 532 483 l 510 483 l 313 411 l 313 147 l 461 56 l 728 108 z "},"9":{"ha":1025,"x_min":51,"x_max":954,"o":"m 954 886 l 940 886 l 842 833 l 842 86 l 718 86 l 503 33 l 429 3 l 415 -11 l 381 -11 q 292 54 349 22 q 210 86 236 86 l 100 86 l 100 106 l 197 147 l 354 147 q 433 125 388 147 q 515 64 479 103 l 708 117 l 708 464 l 661 464 l 442 411 l 293 317 l 271 317 q 198 379 243 354 q 107 411 153 404 l 51 411 l 51 433 l 174 494 l 174 906 l 296 906 l 564 969 l 638 1000 l 671 1000 l 842 906 l 954 906 l 954 886 m 708 486 l 708 842 l 547 936 l 296 875 l 296 475 l 393 433 l 454 433 l 647 486 l 708 486 z "}," ":{"ha":438,"x_min":0,"x_max":0,"o":""},"!":{"ha":486,"x_min":64,"x_max":403,"o":"m 403 886 l 293 833 l 244 317 l 235 317 l 174 833 l 64 889 q 169 943 110 904 q 239 997 221 976 q 301 944 243 983 q 403 886 358 906 m 354 33 l 258 -11 l 222 -11 l 125 36 l 239 136 l 354 33 z "},"\"":{"ha":632,"x_min":74,"x_max":535,"o":"m 535 928 l 425 653 l 415 653 l 415 947 l 471 989 l 535 928 m 197 928 l 88 653 l 74 653 l 74 947 l 142 989 l 197 928 z "},"#":{"ha":813,"x_min":90,"x_max":696,"o":"m 696 486 l 576 486 l 522 303 l 651 306 l 651 253 l 503 253 l 429 -31 l 371 -31 l 435 253 l 283 253 l 210 -31 l 151 -31 l 222 253 l 90 253 l 90 306 l 235 306 l 283 483 l 151 483 l 151 536 l 300 536 l 371 822 l 429 822 l 371 536 l 515 536 l 590 822 l 651 822 l 590 536 l 696 536 l 696 486 m 506 483 l 354 483 l 303 306 l 454 306 l 506 483 z "},"$":{"ha":699,"x_min":78,"x_max":638,"o":"m 638 256 q 585 131 638 179 q 467 83 533 83 l 467 -103 l 419 -103 l 419 86 l 296 86 l 296 -103 l 251 -103 l 251 86 q 143 107 188 86 q 90 181 90 132 l 90 264 l 188 264 l 188 181 q 219 140 188 156 q 251 131 229 136 l 251 411 q 142 478 189 433 q 78 614 78 539 q 164 718 78 685 q 251 736 192 728 l 251 883 l 296 883 l 296 736 l 419 736 l 419 883 l 467 883 l 467 736 q 546 729 519 732 q 625 694 625 718 l 625 600 l 528 600 l 528 656 q 497 685 528 674 q 467 692 488 688 l 467 442 q 576 382 531 422 q 638 256 638 328 m 419 464 l 419 694 l 300 694 l 300 506 l 419 464 m 249 522 l 249 694 q 174 673 213 694 q 135 628 135 651 q 168 565 135 592 q 249 522 194 544 m 574 250 q 542 300 574 272 q 467 339 510 328 l 467 128 q 540 167 507 124 q 574 250 574 210 m 419 128 l 419 358 l 300 400 l 300 128 l 419 128 z "},"%":{"ha":876,"x_min":90,"x_max":808,"o":"m 375 483 l 314 439 l 143 439 l 94 483 l 94 631 l 143 681 l 314 681 l 375 631 l 375 483 m 808 33 l 747 -11 l 576 -11 l 528 33 l 528 181 l 576 231 l 747 231 l 808 181 l 808 33 m 808 600 l 149 -11 l 90 -11 l 90 42 l 735 653 l 808 653 l 808 600 m 314 529 l 314 589 l 285 617 l 186 617 l 157 586 l 157 531 l 188 501 l 282 501 l 314 529 m 747 79 l 747 139 l 718 167 l 619 167 l 590 136 l 590 81 l 621 51 l 715 51 l 747 79 z "},"&":{"ha":1253,"x_min":78,"x_max":1206,"o":"m 1206 119 q 1165 21 1206 60 q 1096 -11 1132 -11 l 950 -11 q 842 35 910 -11 q 732 139 774 81 l 642 264 l 329 -11 l 306 -11 l 78 231 l 403 517 l 190 719 l 464 1000 l 486 1000 l 706 750 l 500 569 l 699 347 l 1011 619 l 1035 619 l 1096 581 l 1121 581 l 1206 619 l 1206 600 l 1157 517 l 1096 464 l 1011 464 l 944 528 l 718 328 l 876 147 l 974 106 l 1121 106 l 1206 147 l 1206 119 m 622 711 l 439 917 l 439 925 l 281 750 l 464 592 l 622 711 m 622 275 l 415 494 l 171 278 l 354 64 l 376 64 l 622 275 z "},"'":{"ha":290,"x_min":42,"x_max":210,"o":"m 210 781 l 161 697 l 51 664 l 125 694 l 151 717 l 151 792 l 42 889 l 161 989 l 210 906 l 210 781 z "},"(":{"ha":415,"x_min":68,"x_max":361,"o":"m 361 -42 l 339 -42 q 142 168 217 36 q 68 439 68 300 q 129 689 68 565 q 251 861 178 785 q 339 925 314 925 l 361 925 l 361 906 q 179 668 231 796 q 139 439 139 569 q 188 188 139 303 q 361 -22 246 50 l 361 -42 z "},")":{"ha":415,"x_min":-19,"x_max":274,"o":"m -19 -42 l 3 -42 q 199 168 125 36 q 274 439 274 300 q 213 689 274 565 q 90 861 164 785 q 3 925 28 925 l -19 925 l -19 906 q 163 668 111 796 q 203 439 203 569 q 154 188 203 303 q -19 -22 96 50 l -19 -42 z "},"*":{"ha":703,"x_min":61,"x_max":622,"o":"m 622 558 l 561 558 l 351 686 l 400 464 l 349 411 l 281 464 l 325 686 l 132 558 l 61 558 l 61 611 l 319 700 l 61 792 l 61 853 l 132 853 l 325 725 l 281 947 l 349 989 l 400 947 l 351 725 l 561 853 l 622 853 l 622 792 l 364 700 l 622 611 l 622 558 z "},"+":{"ha":1099,"x_min":125,"x_max":954,"o":"m 954 411 l 567 411 l 567 33 l 510 33 l 510 411 l 125 411 l 125 475 l 510 475 l 510 853 l 567 853 l 567 475 l 954 475 l 954 411 z "},",":{"ha":290,"x_min":42,"x_max":210,"o":"m 210 -61 l 161 -147 l 64 -189 l 49 -194 l 54 -181 l 151 -136 l 151 -50 l 42 36 l 151 136 l 210 53 l 210 -61 z "},"-":{"ha":864,"x_min":113,"x_max":751,"o":"m 751 414 l 113 414 l 113 475 l 751 475 l 751 414 z "},".":{"ha":361,"x_min":49,"x_max":278,"o":"m 278 33 l 178 -11 l 144 -11 l 49 36 l 161 136 l 278 33 z "},"/":{"ha":864,"x_min":64,"x_max":796,"o":"m 796 981 l 125 -11 l 64 -11 l 64 22 l 735 1000 l 796 1000 l 796 981 z "},":":{"ha":361,"x_min":49,"x_max":278,"o":"m 278 564 l 161 506 l 49 564 l 161 664 l 278 564 m 278 33 l 178 -11 l 144 -11 l 49 36 l 161 136 l 278 33 z "},";":{"ha":361,"x_min":49,"x_max":278,"o":"m 278 564 l 161 506 l 49 564 l 161 664 l 278 564 m 215 -61 l 168 -147 l 71 -189 l 54 -194 l 58 -181 l 158 -136 l 158 -50 l 49 36 l 168 136 l 215 53 l 215 -61 z "},"<":{"ha":1099,"x_min":81,"x_max":993,"o":"m 993 -11 l 81 411 l 81 442 l 960 875 l 993 875 l 993 844 l 139 425 l 993 22 l 993 -11 z "},"=":{"ha":1099,"x_min":68,"x_max":1006,"o":"m 1006 600 l 68 600 l 68 664 l 1006 664 l 1006 600 m 1006 222 l 68 222 l 68 283 l 1006 283 l 1006 222 z "},">":{"ha":1099,"x_min":99,"x_max":1011,"o":"m 1011 411 l 99 -11 l 99 22 l 953 425 l 99 844 l 99 875 l 132 875 l 1011 442 l 1011 411 z "},"?":{"ha":813,"x_min":58,"x_max":732,"o":"m 732 767 q 656 581 732 657 q 435 444 590 515 l 400 328 l 400 317 l 390 317 l 390 328 l 329 475 l 439 475 q 557 563 511 493 q 608 750 608 639 q 556 913 608 850 q 447 969 508 969 l 329 969 q 207 893 243 969 q 181 750 181 839 l 58 792 q 157 929 72 869 q 325 989 242 989 l 461 989 q 651 923 569 989 q 732 767 732 857 m 510 33 l 413 -11 l 376 -11 l 281 36 l 396 136 l 510 33 z "},"A":{"ha":1306,"x_min":29,"x_max":1260,"o":"m 1260 136 l 1150 -11 l 1079 -11 q 1044 2 1061 -11 q 1018 33 1026 15 l 849 356 l 444 356 l 332 136 q 480 121 422 136 q 554 89 538 106 l 439 -11 q 372 20 424 7 q 283 33 321 33 q 122 24 175 33 q 29 -11 69 14 l 139 94 q 215 122 164 108 q 300 136 267 136 l 542 594 q 500 664 542 625 q 425 694 468 694 q 367 682 389 694 q 335 653 353 675 l 306 653 q 376 715 336 689 q 513 758 442 758 q 576 740 554 758 q 600 706 589 729 l 628 769 q 617 822 622 803 q 486 939 579 939 q 386 901 432 939 q 335 844 367 886 l 310 844 q 432 951 356 911 q 600 992 508 992 q 663 984 636 992 q 713 947 689 976 l 1150 136 l 1260 136 m 842 381 l 651 747 l 642 747 l 454 381 l 842 381 z "},"B":{"ha":1194,"x_min":68,"x_max":1115,"o":"m 561 986 q 495 959 524 968 q 444 950 467 950 q 403 967 438 950 q 361 989 369 985 l 178 989 l 74 889 q 122 914 106 906 q 183 939 174 939 q 229 924 200 939 q 286 886 258 908 l 457 886 l 561 986 m 1115 128 l 993 128 l 896 86 l 779 -11 l 676 33 l 374 33 q 278 18 338 33 q 174 -14 258 13 q 303 75 204 22 q 493 136 418 136 l 751 136 l 761 128 l 776 128 l 776 569 l 893 625 l 996 706 l 996 844 l 850 939 l 628 833 l 628 411 q 585 330 619 368 q 510 275 550 292 l 510 717 q 553 794 522 754 q 615 853 583 835 l 908 989 l 969 989 l 1067 947 l 1115 864 l 1115 750 l 1006 653 l 908 608 q 1038 533 974 582 q 1115 433 1115 474 l 1115 128 m 349 303 q 301 228 339 264 q 225 183 264 192 l 225 464 l 129 464 l 68 411 l 68 517 l 117 569 l 225 569 l 225 611 q 269 689 231 642 q 349 758 307 736 l 349 303 m 993 431 l 993 483 l 957 547 l 896 600 l 869 600 l 799 564 l 799 431 l 993 431 m 993 292 l 993 414 l 799 414 l 799 292 l 993 292 m 993 139 l 993 275 l 799 275 l 799 117 l 874 94 l 889 94 l 993 139 z "},"C":{"ha":1179,"x_min":64,"x_max":1118,"o":"m 1118 283 q 949 86 1101 175 q 593 -8 788 -8 q 192 124 326 -8 q 64 481 64 249 q 150 761 64 635 q 403 944 243 899 q 251 768 310 875 q 183 492 183 642 q 326 200 183 313 q 661 94 461 94 q 797 100 742 94 q 874 128 851 106 l 874 844 l 764 844 l 674 881 l 628 844 l 628 369 l 581 286 l 544 253 l 544 244 l 510 222 l 510 800 l 776 989 l 799 989 q 855 958 826 968 q 925 947 883 947 q 999 956 960 947 q 1064 983 1038 965 l 1018 897 l 922 853 l 896 833 l 896 136 q 1043 210 964 136 q 1118 283 1081 246 z "},"D":{"ha":1115,"x_min":64,"x_max":1015,"o":"m 1015 853 l 1011 128 l 889 128 l 793 86 l 676 -11 l 574 33 l 268 33 q 173 19 238 33 q 64 -11 108 6 q 212 83 96 29 q 381 136 328 136 l 551 136 l 551 886 l 235 886 q 137 928 210 886 q 64 989 64 971 l 860 992 q 960 946 911 992 q 1015 853 1010 900 m 403 353 q 353 276 403 329 q 283 222 304 222 l 283 464 l 183 464 l 125 411 l 125 517 l 171 569 l 283 569 l 283 608 q 332 696 283 636 q 403 756 381 756 l 403 353 m 889 653 l 889 853 l 842 883 l 574 883 l 574 653 l 683 611 l 783 611 l 889 653 m 889 383 l 889 639 l 796 600 l 671 600 l 574 639 l 574 383 l 674 425 l 806 425 l 889 383 m 889 144 l 889 369 l 803 411 l 674 411 l 574 369 l 574 139 l 622 139 l 764 100 l 793 103 l 889 144 z "},"E":{"ha":1131,"x_min":49,"x_max":1074,"o":"m 544 986 l 439 886 l 268 886 q 212 923 242 907 q 168 939 182 939 q 104 914 156 939 q 54 889 88 906 l 161 989 l 342 989 q 390 964 361 978 q 425 950 419 950 q 476 960 444 950 q 544 986 508 969 m 1074 94 l 964 -11 q 890 20 938 7 q 806 33 843 33 l 390 33 q 294 23 344 33 q 183 -11 243 13 q 325 76 240 40 q 503 117 418 117 l 503 653 l 622 894 l 683 947 l 779 989 l 925 989 q 1009 976 967 989 q 1074 947 1051 964 l 957 844 l 854 886 l 732 886 l 632 844 l 525 639 l 525 314 l 622 517 l 683 569 l 803 569 l 903 528 l 915 511 l 799 411 l 732 464 l 632 464 l 525 286 l 525 128 l 935 128 q 1009 119 967 128 q 1074 94 1051 110 m 329 303 q 283 228 319 264 q 210 183 247 192 l 210 464 l 110 464 l 49 411 l 49 517 l 100 569 l 210 569 l 210 611 q 251 689 214 642 q 329 758 288 736 l 329 303 z "},"F":{"ha":1150,"x_min":36,"x_max":1253,"o":"m 754 994 l 647 894 l 481 894 q 422 932 451 917 q 376 947 392 947 q 314 922 365 947 q 264 897 297 914 l 371 997 l 551 997 q 600 972 571 986 q 635 958 629 958 q 686 968 654 958 q 754 994 718 978 m 1253 969 q 1199 889 1253 933 q 1108 844 1144 844 l 986 844 l 986 181 l 976 181 l 976 464 l 815 464 l 815 169 l 764 86 l 547 -11 l 415 -11 l 329 33 l 206 33 q 119 21 169 33 q 36 -11 68 8 q 135 87 60 38 q 244 136 211 136 l 376 136 l 583 42 l 635 42 l 693 94 l 693 800 l 976 989 l 999 989 l 1083 947 l 1196 947 l 1253 989 l 1253 969 m 538 314 q 492 238 528 275 q 419 192 456 200 l 419 472 l 319 472 l 261 419 l 261 525 l 310 578 l 419 578 l 419 619 q 460 698 424 651 q 538 767 496 744 l 538 314 m 974 569 l 974 842 l 886 883 l 854 883 l 815 853 l 815 569 l 974 569 z "},"G":{"ha":1179,"x_min":68,"x_max":1115,"o":"m 1115 211 q 1001 65 1115 142 q 799 -11 886 -11 l 544 -11 q 225 136 375 -11 q 68 489 68 290 q 149 763 68 644 q 403 942 238 893 q 247 758 306 885 q 188 503 188 632 q 293 148 188 296 q 554 0 399 0 l 776 0 l 776 569 l 983 869 l 969 875 l 908 844 l 764 844 l 671 886 l 628 844 l 625 322 q 589 243 617 282 q 510 181 556 196 l 510 800 l 776 989 l 799 989 l 883 947 l 996 947 l 1074 983 l 796 569 q 1035 510 943 569 q 1115 389 1115 457 l 1115 211 m 993 381 q 922 489 993 431 q 786 547 851 547 l 786 381 l 993 381 m 993 233 l 993 369 l 786 369 l 786 233 l 993 233 m 993 222 l 786 222 l 786 3 q 913 64 843 3 q 993 222 993 135 z "},"H":{"ha":1179,"x_min":68,"x_max":1115,"o":"m 1067 942 l 954 844 l 838 939 l 751 939 l 628 833 l 628 411 q 590 335 617 369 q 510 275 557 293 l 510 717 l 557 800 l 728 947 l 825 989 l 969 989 l 1067 942 m 561 986 q 495 959 524 968 q 444 950 467 950 q 403 967 438 950 q 361 989 369 985 l 178 989 l 74 889 q 122 914 106 906 q 183 939 174 939 q 229 924 200 939 q 286 886 258 908 l 457 886 l 561 986 m 1115 297 q 1069 139 1115 231 q 944 -11 1015 32 q 981 138 965 56 q 996 275 996 221 l 786 275 l 786 86 l 671 -11 l 571 33 l 383 33 q 281 21 339 33 q 178 -11 222 8 q 333 91 232 46 q 493 136 435 136 l 689 136 l 757 106 l 764 117 l 764 569 l 1003 706 l 1115 528 l 1115 297 m 349 303 q 301 228 339 264 q 225 183 264 192 l 225 464 l 129 464 l 68 411 l 68 517 l 117 569 l 225 569 l 225 611 q 269 689 231 642 q 349 758 307 736 l 349 303 m 993 422 l 993 528 l 944 600 l 874 600 l 786 558 l 786 422 l 993 422 m 993 286 l 993 411 l 786 411 l 786 286 l 993 286 z "},"I":{"ha":947,"x_min":26,"x_max":908,"o":"m 786 986 l 681 886 l 510 886 q 453 923 483 907 q 410 939 424 939 q 346 914 397 939 q 296 889 329 906 l 403 989 l 583 989 q 632 964 603 978 q 667 950 661 950 q 718 960 686 950 q 786 986 750 969 m 908 875 l 860 803 l 860 222 q 761 76 860 164 q 593 -11 663 -11 l 400 -11 l 313 33 l 129 33 l 26 -6 q 128 88 60 40 q 229 136 197 136 l 361 136 l 571 42 l 667 42 l 742 136 l 742 672 l 789 800 l 908 894 l 908 875 m 571 303 q 524 228 561 264 q 447 183 486 192 l 447 464 l 351 464 l 290 411 l 290 517 l 342 569 l 447 569 l 447 611 q 490 686 456 642 q 571 758 531 738 l 571 303 z "},"J":{"ha":918,"x_min":44,"x_max":886,"o":"m 728 989 l 615 886 l 413 886 l 283 939 l 161 889 l 268 989 l 461 989 l 600 947 l 693 989 l 728 989 m 554 358 l 510 275 l 447 222 l 425 222 l 425 464 l 339 464 l 290 411 l 268 411 l 268 517 l 313 569 l 425 569 l 425 611 l 532 758 l 554 758 l 554 358 m 886 875 l 847 811 l 838 803 l 838 222 q 747 53 838 117 q 519 -11 656 -11 l 303 -11 q 126 21 197 -11 q 44 128 44 58 l 44 231 l 93 283 l 178 283 l 215 253 l 215 211 l 178 181 l 93 181 l 78 200 l 68 192 l 68 147 q 150 40 68 78 q 319 8 219 8 l 490 8 q 635 52 565 8 q 706 142 706 96 l 706 672 l 754 800 l 864 894 l 886 894 l 886 875 z "},"K":{"ha":1189,"x_min":68,"x_max":1144,"o":"m 1038 942 l 922 844 l 806 939 l 718 939 l 596 831 l 596 411 l 547 328 l 476 275 l 476 717 l 525 800 l 696 947 l 793 989 l 938 989 l 1038 942 m 561 986 q 495 959 524 968 q 444 950 467 950 q 403 967 438 950 q 361 989 369 985 l 178 989 l 74 889 q 122 914 106 906 q 183 939 174 939 q 229 924 200 939 q 286 886 258 908 l 457 886 l 561 986 m 1144 44 q 1119 10 1139 31 q 1086 -11 1100 -11 l 1021 -11 q 988 5 1008 -11 q 964 33 967 21 l 915 317 l 860 369 l 757 275 l 757 86 l 642 -11 l 538 33 l 354 33 q 149 -11 256 33 q 303 87 192 38 q 464 136 414 136 l 657 136 l 738 94 l 744 106 l 744 569 l 922 706 l 1086 606 l 864 375 l 976 328 l 1074 64 q 1093 47 1078 53 q 1121 42 1108 42 l 1144 44 m 349 303 q 301 228 339 264 q 225 183 264 192 l 225 464 l 129 464 l 68 411 l 68 517 l 117 569 l 225 569 l 225 611 q 269 689 231 642 q 349 758 307 736 l 349 303 z "},"L":{"ha":1135,"x_min":49,"x_max":1074,"o":"m 544 986 l 439 886 l 268 886 q 212 923 242 907 q 168 939 182 939 q 104 914 156 939 q 54 889 88 906 l 161 989 l 342 989 q 390 964 361 978 q 425 950 419 950 q 476 960 444 950 q 544 986 508 969 m 1074 94 l 964 -11 q 896 21 943 8 q 806 33 849 33 l 383 33 q 281 20 343 33 q 183 -11 219 7 q 352 85 226 33 q 547 136 478 136 l 832 136 l 832 939 l 754 939 l 632 833 l 632 400 q 592 328 624 364 q 513 275 560 293 l 513 706 l 593 825 l 732 947 l 832 989 l 976 989 l 1074 942 l 957 844 l 860 928 l 854 917 l 854 136 l 876 136 q 982 125 925 136 q 1074 94 1039 114 m 329 303 q 283 228 319 264 q 210 183 247 192 l 210 464 l 110 464 l 49 411 l 49 517 l 100 569 l 210 569 l 210 611 q 251 689 214 642 q 329 758 288 736 l 329 303 z "},"M":{"ha":1454,"x_min":29,"x_max":1411,"o":"m 1411 94 l 1299 -11 l 1179 86 l 1179 464 l 1021 464 l 1021 128 l 796 -11 l 683 89 l 742 136 l 742 464 l 583 464 l 583 117 l 532 33 l 471 -11 l 400 -11 l 315 33 l 132 33 l 29 -6 q 131 92 68 49 q 229 136 193 136 l 374 136 l 461 94 l 522 94 l 571 136 l 571 886 l 535 886 l 425 792 l 425 411 q 388 333 421 369 q 303 278 354 297 l 303 464 l 203 464 l 132 411 l 132 517 l 193 569 l 303 569 l 303 672 l 354 753 l 638 989 l 850 806 l 1076 989 l 1301 800 l 1301 181 l 1363 94 l 1411 94 m 1179 569 l 1179 758 l 1021 875 l 1021 569 l 1179 569 m 1008 131 l 1008 883 l 967 883 l 864 797 l 864 169 l 913 97 l 947 97 l 1008 131 m 742 569 l 742 758 l 583 875 l 583 569 l 742 569 z "},"N":{"ha":1189,"x_min":36,"x_max":1253,"o":"m 1253 969 l 1206 886 l 1108 844 l 1047 844 l 1047 -19 q 913 63 997 -19 q 779 214 847 125 q 718 297 749 256 l 683 328 l 583 367 l 376 367 l 281 319 l 281 136 l 447 136 l 547 89 l 432 -11 l 367 33 l 206 33 q 124 22 169 33 q 36 -11 78 10 l 144 94 l 232 128 l 254 147 l 254 464 l 154 464 l 97 411 l 97 517 l 144 569 l 254 569 l 254 939 l 154 939 l 42 847 q 154 960 110 932 q 242 989 199 989 l 390 989 q 471 952 418 989 q 547 875 524 915 l 635 722 l 815 611 l 915 611 l 1025 664 l 1025 844 l 964 844 l 864 889 l 976 989 l 999 989 l 1083 947 l 1196 947 l 1253 989 l 1253 969 m 1021 108 l 1021 650 l 915 600 l 815 600 l 644 703 l 976 139 l 1021 108 m 689 342 l 461 778 q 385 881 425 839 q 281 939 328 939 l 281 336 l 376 381 l 583 381 l 689 342 z "},"O":{"ha":1251,"x_min":71,"x_max":1182,"o":"m 1182 400 q 997 124 1182 267 q 693 -11 822 -11 l 476 -11 q 206 117 319 -11 q 71 536 71 268 q 185 856 71 715 q 413 989 293 989 q 274 842 349 989 q 193 519 193 685 q 331 111 193 251 q 561 6 433 6 l 683 6 l 767 22 l 767 917 l 764 928 l 571 836 l 571 303 q 535 232 558 260 q 451 181 506 199 l 451 800 l 842 989 q 1072 846 954 989 q 1182 619 1182 713 l 1182 400 m 1060 653 q 963 823 1060 721 q 793 925 867 925 l 793 653 l 899 611 l 957 611 l 1060 653 m 1060 381 l 1060 642 l 964 600 l 889 600 l 793 639 l 793 381 l 889 422 l 976 422 l 1060 381 m 1060 367 l 969 411 l 889 411 l 793 369 l 793 31 q 959 153 858 31 q 1060 367 1060 275 z "},"P":{"ha":1010,"x_min":58,"x_max":944,"o":"m 944 128 l 722 -11 l 618 33 l 506 33 l 506 -200 l 486 -200 l 486 836 l 349 758 l 335 750 l 335 -242 l 215 -336 l 215 22 l 210 33 l 58 -11 l 71 11 l 215 83 l 215 464 l 117 464 l 58 411 l 58 517 l 107 569 l 215 569 l 215 853 q 176 923 215 875 q 103 989 136 971 l 129 989 q 257 919 179 989 q 335 814 335 849 l 335 769 l 351 769 l 722 989 l 944 800 l 944 128 m 825 653 l 825 758 l 667 883 l 561 883 l 510 853 l 510 653 l 615 611 l 715 611 l 825 653 m 825 386 l 825 642 l 728 600 l 606 600 l 510 642 l 510 383 l 606 422 l 742 422 l 825 386 m 825 94 l 825 369 l 732 411 l 613 411 l 510 369 l 510 139 l 667 139 l 825 94 z "},"Q":{"ha":1213,"x_min":51,"x_max":1164,"o":"m 1164 506 q 1049 188 1164 322 q 735 -11 935 54 q 869 -161 761 -58 q 1054 -283 997 -283 l 1101 -283 l 1054 -336 l 922 -336 l 808 -283 l 651 -11 l 483 -11 q 214 128 351 -11 q 51 514 51 292 q 157 840 51 690 q 396 989 263 989 q 253 823 325 989 q 181 503 181 657 q 294 171 181 342 q 500 0 408 0 l 544 42 l 625 42 l 725 0 l 751 14 l 751 917 l 554 822 l 554 306 q 508 232 538 263 q 435 181 479 201 l 435 800 l 825 989 q 1067 831 964 989 q 1164 506 1164 681 m 1040 653 q 943 820 1040 715 q 796 925 846 925 l 774 925 l 774 653 l 876 611 l 938 611 l 1040 653 m 1040 383 l 1040 642 l 944 600 l 869 600 l 774 639 l 774 383 l 867 422 l 960 422 l 1040 383 m 1040 364 l 947 411 l 876 411 l 774 369 l 774 22 q 976 206 906 108 q 1040 364 1040 293 m 638 3 l 615 31 l 544 31 l 519 3 l 638 3 z "},"R":{"ha":1160,"x_min":49,"x_max":1128,"o":"m 1128 94 l 1015 -11 l 896 86 l 786 358 l 683 464 l 581 419 l 457 275 l 457 717 l 576 867 l 806 989 l 860 989 q 979 919 935 989 q 1018 775 1018 858 q 994 647 1018 696 q 896 558 965 589 l 699 472 l 786 433 l 860 369 l 1067 94 l 1128 94 m 544 986 l 439 886 l 268 886 q 212 923 242 907 q 168 939 182 939 q 104 914 156 939 q 54 889 88 906 l 161 989 l 342 989 q 390 964 361 978 q 425 950 419 950 q 476 960 444 950 q 544 986 508 969 m 329 303 q 283 228 319 264 q 210 183 247 192 l 210 464 l 110 464 l 49 411 l 49 517 l 100 569 l 210 569 l 210 611 q 251 689 214 642 q 329 758 288 736 l 329 303 m 738 94 l 622 -11 l 519 33 l 332 33 q 234 19 300 33 q 129 -11 168 4 q 278 88 179 40 q 447 136 378 136 l 590 136 q 672 125 631 136 q 738 94 713 114 m 896 736 q 845 867 896 800 q 754 933 794 933 q 665 890 750 933 q 581 847 638 876 l 581 433 l 738 506 q 874 607 843 554 q 896 736 896 646 z "},"S":{"ha":1160,"x_min":61,"x_max":1121,"o":"m 1121 464 l 742 3 l 732 -11 l 708 -11 q 645 18 688 3 q 576 33 603 33 l 268 33 q 169 22 225 33 q 61 -11 113 10 q 246 95 142 54 q 425 136 350 136 l 635 136 q 713 122 664 136 q 779 94 761 107 l 793 94 l 1003 411 l 1003 506 q 939 562 1003 524 q 842 600 875 600 l 561 600 l 476 475 l 732 475 q 778 449 761 475 q 796 394 796 422 q 781 333 796 361 q 742 286 765 306 l 713 272 l 718 294 q 678 347 718 324 q 613 369 639 369 l 403 369 l 281 264 l 183 222 l 122 222 l 122 283 l 181 233 l 271 275 l 381 364 l 367 369 l 222 369 q 115 431 169 369 q 61 567 61 493 q 144 508 85 540 q 232 475 204 475 l 464 475 l 551 600 l 381 600 q 231 653 328 600 q 135 739 135 707 l 135 831 q 229 943 135 892 q 381 989 313 989 l 644 989 l 842 947 l 644 706 l 938 706 q 1051 665 982 706 q 1121 589 1121 625 l 1121 464 m 718 847 l 547 947 l 415 978 l 376 978 q 259 938 335 978 q 183 867 183 897 l 183 792 q 263 740 183 775 q 381 706 342 706 l 622 706 l 718 847 z "},"T":{"ha":1165,"x_min":68,"x_max":1115,"o":"m 1115 283 q 918 63 1076 142 q 593 -8 776 -8 q 206 105 344 -8 q 68 428 68 218 q 89 637 68 556 q 190 800 110 718 q 135 676 149 732 q 122 547 122 619 q 274 227 122 360 q 642 94 425 94 q 783 106 715 94 q 874 128 851 117 l 874 844 l 715 844 l 696 850 l 628 803 l 628 369 q 588 289 610 319 q 510 222 557 246 l 510 758 l 664 858 q 561 894 600 882 q 335 939 432 939 q 183 913 254 939 q 68 847 113 888 q 117 944 68 899 q 215 989 167 989 l 493 989 l 751 947 l 1006 947 l 1111 983 q 999 888 1053 922 q 896 844 944 854 l 896 139 q 979 176 935 149 q 1115 283 1033 210 z "},"U":{"ha":1194,"x_min":49,"x_max":1147,"o":"m 535 986 q 419 950 463 950 q 388 960 408 950 q 335 989 367 969 l 151 989 l 49 889 q 97 914 81 906 q 158 939 147 939 q 201 925 175 939 q 261 886 226 911 l 432 886 l 535 986 m 1147 94 l 1031 -11 l 922 86 q 811 29 896 58 q 571 -11 694 -11 q 183 143 307 -11 q 83 478 83 268 q 119 656 83 564 q 210 800 156 747 q 173 678 188 747 q 158 544 158 610 q 271 235 158 364 q 603 92 396 92 l 674 89 q 732 94 718 89 l 732 833 l 596 803 l 596 369 q 554 283 578 317 q 481 225 524 240 l 476 717 l 525 800 l 732 853 l 969 989 l 1147 886 l 1038 833 l 1038 181 l 1096 94 l 1147 94 m 915 614 l 915 853 l 842 883 l 757 842 l 757 614 l 915 614 m 915 422 l 915 600 l 757 600 l 757 422 l 915 422 m 915 139 l 915 408 l 757 408 l 757 94 l 915 139 z "},"V":{"ha":1121,"x_min":26,"x_max":1086,"o":"m 1086 886 l 976 833 l 976 128 l 854 128 l 718 94 l 532 -11 l 258 86 l 88 86 l 88 94 l 197 147 l 197 464 l 97 464 l 26 411 l 26 517 l 88 569 l 197 569 l 197 844 q 166 922 197 882 q 88 989 135 963 q 244 918 165 989 q 319 800 319 851 l 319 136 l 515 136 l 515 797 l 796 894 l 908 989 l 1086 886 m 854 653 l 854 853 l 806 883 l 538 789 l 538 653 l 644 611 l 744 611 l 854 653 m 854 381 l 854 642 l 757 600 l 635 600 l 538 642 l 538 381 l 635 422 l 767 422 l 854 381 m 854 139 l 854 369 l 757 411 l 635 411 l 538 369 l 538 139 l 718 108 l 854 139 z "},"W":{"ha":1260,"x_min":26,"x_max":1196,"o":"m 1196 128 l 903 -11 l 757 128 l 742 128 l 471 -11 l 258 86 l 88 86 l 88 94 l 97 94 l 197 147 l 197 464 l 97 464 l 26 411 l 26 517 l 88 569 l 197 569 l 197 844 q 165 922 197 876 q 88 989 132 967 q 246 918 169 989 q 315 800 315 853 l 315 136 l 464 136 l 464 894 l 642 989 l 754 894 l 754 136 l 903 136 l 903 894 l 1079 989 l 1196 894 l 1196 128 m 1074 611 l 1074 853 l 1021 883 l 915 883 l 915 611 l 1074 611 m 1074 422 l 1074 600 l 915 600 l 915 422 l 1074 422 m 632 611 l 632 853 l 583 883 l 476 883 l 476 611 l 632 611 m 1074 128 l 1074 411 l 915 411 l 915 139 l 1021 100 l 1074 128 m 632 422 l 632 600 l 476 600 l 476 422 l 632 422 m 632 128 l 632 411 l 476 411 l 476 139 l 574 100 l 632 128 z "},"X":{"ha":1189,"x_min":36,"x_max":1140,"o":"m 1140 133 q 1001 13 1056 38 q 869 -11 947 -11 q 788 0 813 -11 q 747 33 763 11 l 551 414 l 376 86 l 313 -11 q 158 33 281 33 q 82 22 107 33 q 36 -11 57 11 q 251 136 60 136 q 326 131 297 136 q 361 106 354 126 l 538 433 l 500 506 l 258 506 l 258 528 l 490 528 l 281 894 q 215 936 257 936 q 122 910 163 936 q 42 844 117 906 q 156 950 96 917 q 313 989 224 989 q 425 947 410 989 l 628 558 l 806 883 l 854 989 l 876 989 q 941 959 900 971 q 1021 947 982 947 q 1098 956 1071 947 q 1140 983 1125 965 q 1076 889 1124 925 q 928 844 1019 844 q 835 850 846 844 q 825 875 829 864 l 638 528 l 925 528 l 925 506 l 651 506 l 864 94 q 906 55 879 68 q 976 42 932 42 q 1065 69 1019 42 q 1140 133 1111 97 z "},"Y":{"ha":1121,"x_min":42,"x_max":1106,"o":"m 1106 886 l 993 833 l 993 -147 l 944 -231 l 818 -336 l 496 -242 l 215 -242 l 215 -231 l 410 -189 l 786 -189 l 922 -231 l 983 -136 l 983 -11 l 886 128 l 738 94 l 551 -11 l 278 86 l 103 86 l 103 94 l 117 94 l 215 147 l 215 464 l 117 464 l 42 411 l 42 517 l 103 569 l 215 569 l 215 844 q 178 918 215 871 q 103 989 140 965 q 252 920 169 989 q 335 800 335 851 l 335 136 l 544 136 l 544 800 l 813 894 l 928 989 l 1106 886 m 869 653 l 869 853 l 822 883 l 557 789 l 557 653 l 664 611 l 764 611 l 869 653 m 869 383 l 869 642 l 776 600 l 651 600 l 557 642 l 557 381 l 651 422 l 786 422 l 869 383 m 869 139 l 869 369 l 774 411 l 651 411 l 557 369 l 557 139 l 738 108 l 869 139 z "},"Z":{"ha":989,"x_min":42,"x_max":928,"o":"m 928 989 l 576 517 l 818 517 l 818 506 l 567 506 l 174 58 q 351 115 247 94 q 576 136 456 136 q 772 123 674 136 q 915 92 869 110 l 818 -11 q 701 22 772 11 q 490 33 629 33 q 238 24 329 33 q 42 -11 147 14 l 425 506 l 200 506 l 200 517 l 432 517 l 783 911 l 774 917 q 631 865 739 885 q 381 844 524 844 q 185 854 260 844 q 42 886 110 864 l 149 989 q 266 960 182 972 q 483 947 350 947 q 747 965 610 947 q 928 989 885 983 z "},"[":{"ha":415,"x_min":88,"x_max":376,"o":"m 376 -19 l 88 -19 l 88 936 l 376 936 l 376 917 l 158 917 l 158 0 l 376 0 l 376 -19 z "},"\\":{"ha":864,"x_min":-54,"x_max":678,"o":"m -54 981 l 617 -11 l 678 -11 l 678 22 l 7 1000 l -54 1000 l -54 981 z "},"]":{"ha":415,"x_min":-32,"x_max":257,"o":"m -32 -19 l 257 -19 l 257 936 l -32 936 l -32 917 l 186 917 l 186 0 l -32 0 l -32 -19 z "},"^":{"ha":1025,"x_min":64,"x_max":944,"o":"m 944 644 l 922 644 l 490 833 l 81 647 l 64 647 l 503 894 l 944 644 z "},"_":{"ha":1099,"x_min":3,"x_max":1074,"o":"m 1074 -336 l 3 -336 l 3 -294 l 1074 -294 l 1074 -336 z "},"`":{"ha":532,"x_min":65,"x_max":410,"o":"m 410 1067 l 374 1067 l 65 1297 l 322 1236 l 410 1106 l 410 1067 z "},"a":{"ha":738,"x_min":42,"x_max":713,"o":"m 713 94 l 596 -11 l 481 86 l 481 128 l 335 86 l 222 -11 q 97 44 153 -11 q 42 167 42 100 q 48 249 42 215 q 81 306 54 283 l 200 411 l 42 550 l 42 569 l 158 664 l 322 569 l 383 569 l 547 664 l 664 564 l 603 506 l 603 136 l 664 94 l 713 94 m 481 144 l 481 506 l 371 547 l 335 547 l 225 506 l 129 506 l 335 322 l 322 317 l 219 400 l 117 311 q 107 281 107 303 q 116 224 107 253 q 144 161 125 194 q 217 114 169 126 q 306 106 249 106 l 344 106 l 481 144 z "},"b":{"ha":822,"x_min":22,"x_max":803,"o":"m 803 569 l 693 506 l 693 86 l 571 86 l 310 -11 l 132 86 l 22 86 l 22 94 l 36 94 l 132 147 l 132 803 l 83 889 l 254 989 l 254 528 l 576 664 l 742 569 l 803 569 m 571 103 l 571 517 l 471 558 l 376 558 l 254 506 l 254 139 l 415 47 l 571 103 z "},"c":{"ha":735,"x_min":42,"x_max":713,"o":"m 713 569 l 603 506 l 481 506 l 383 586 l 274 550 l 274 147 l 371 94 l 419 94 l 576 158 l 576 128 l 268 -11 l 90 86 l 42 86 l 42 94 l 54 94 l 151 147 l 151 569 l 486 664 l 638 569 l 713 569 z "},"d":{"ha":774,"x_min":42,"x_max":713,"o":"m 713 86 l 590 86 l 329 -11 l 151 86 l 42 86 l 42 94 l 54 94 l 151 147 l 151 569 l 419 658 l 151 889 l 335 989 l 381 853 l 713 569 l 713 86 m 590 103 l 590 517 l 442 642 l 274 581 l 274 142 l 435 44 l 590 103 z "},"e":{"ha":676,"x_min":36,"x_max":644,"o":"m 644 469 l 268 286 l 268 147 l 425 94 l 264 -11 l 88 86 l 36 86 l 36 94 l 49 94 l 149 147 l 149 569 l 481 664 l 644 469 m 513 425 l 376 600 l 268 558 l 268 306 l 513 425 m 271 831 l 301 831 q 276 786 299 804 q 221 768 253 768 q 161 793 183 768 q 139 860 139 818 q 161 933 139 904 q 226 961 183 961 q 284 933 264 961 q 304 854 304 904 l 172 854 q 225 794 172 794 q 258 806 244 794 q 271 831 271 818 m 172 879 l 272 879 q 261 919 272 904 q 222 933 250 933 q 188 917 203 933 q 172 879 172 900 m 499 904 l 469 904 q 426 935 469 935 q 400 928 410 935 q 390 908 390 921 q 424 885 390 893 l 454 876 q 506 829 506 863 q 485 785 506 801 q 433 768 464 768 q 368 792 386 768 q 356 832 356 807 l 385 832 q 399 803 386 813 q 433 794 413 794 q 475 824 475 794 q 439 850 475 840 l 403 858 q 361 903 361 869 q 381 947 361 932 q 429 961 400 961 q 480 945 461 961 q 499 904 499 929 m 636 931 l 606 931 l 606 774 l 575 774 l 575 931 l 550 931 l 550 956 l 575 956 l 575 986 q 622 1026 575 1026 l 636 1026 l 636 999 l 624 999 q 606 978 606 999 l 606 956 l 636 956 l 636 931 z "},"f":{"ha":667,"x_min":42,"x_max":713,"o":"m 713 886 l 699 886 l 615 844 l 481 844 l 376 939 l 335 886 l 335 672 l 554 672 l 554 653 l 335 653 l 335 147 l 432 94 l 493 94 l 329 -11 l 151 86 l 103 86 l 103 94 l 117 94 l 213 147 l 213 653 l 42 653 l 42 672 l 213 672 l 213 894 l 471 989 l 493 989 l 664 894 l 713 894 l 713 886 z "},"g":{"ha":836,"x_min":42,"x_max":818,"o":"m 818 569 l 708 506 l 708 -61 l 661 -200 l 551 -294 l 435 -336 l 261 -242 l 151 -242 l 249 -189 l 393 -189 l 490 -231 l 542 -275 l 644 -186 l 590 22 l 590 125 l 268 -11 l 103 86 l 42 86 l 42 94 l 51 94 l 151 147 l 151 572 l 274 572 l 547 664 l 696 569 l 818 569 m 586 144 l 586 517 l 442 600 l 413 600 l 274 558 l 274 139 l 358 94 l 474 94 l 586 144 z "},"h":{"ha":826,"x_min":22,"x_max":803,"o":"m 803 569 l 693 506 l 693 86 l 542 -94 l 542 -231 l 644 -336 l 571 -336 l 522 -250 l 522 -75 l 571 75 l 571 506 l 461 558 l 413 558 l 254 497 l 254 147 l 364 89 l 249 -11 l 83 86 l 22 86 l 22 94 l 36 94 l 132 147 l 132 803 l 83 889 l 254 989 l 254 517 l 576 664 l 742 569 l 803 569 z "},"i":{"ha":425,"x_min":44,"x_max":383,"o":"m 335 886 l 239 844 l 203 844 l 107 889 l 222 989 l 335 886 m 383 94 l 271 -11 l 154 86 l 154 506 l 44 569 l 222 664 l 383 564 l 274 506 l 274 136 l 335 94 l 383 94 z "},"j":{"ha":444,"x_min":44,"x_max":383,"o":"m 335 886 l 239 844 l 203 844 l 107 889 l 222 989 l 335 886 m 383 564 l 274 506 l 274 83 l 335 -83 l 335 -242 l 225 -336 l 107 -336 l 107 -283 l 129 -283 l 219 -319 l 313 -236 l 313 -100 l 154 86 l 154 506 l 44 569 l 222 664 l 383 564 z "},"k":{"ha":813,"x_min":49,"x_max":776,"o":"m 776 94 l 664 -11 q 556 118 596 36 q 500 275 533 164 q 476 329 490 306 q 435 375 457 361 l 278 281 l 278 147 l 390 89 l 274 -11 l 110 86 l 49 86 l 49 94 l 61 94 l 158 147 l 158 803 l 110 889 l 278 989 l 278 528 l 554 664 l 667 511 l 500 414 q 564 364 533 407 q 608 283 583 338 q 658 171 632 229 q 715 94 696 94 l 776 94 m 557 458 l 447 600 l 281 517 l 281 297 l 557 458 z "},"l":{"ha":479,"x_min":36,"x_max":435,"o":"m 435 94 l 258 -11 l 93 86 l 36 86 l 36 94 l 44 94 l 142 147 l 142 803 l 93 889 l 261 989 l 261 147 l 361 94 l 435 94 z "},"m":{"ha":1329,"x_min":54,"x_max":1272,"o":"m 1272 94 l 1157 -11 l 1044 86 l 1044 506 l 931 558 l 883 558 l 722 497 l 722 147 l 832 89 l 718 -11 l 554 89 l 603 136 l 603 506 l 493 558 l 444 558 l 283 486 l 283 147 l 396 89 l 281 -11 l 117 86 l 54 86 l 54 94 l 68 94 l 164 147 l 164 506 l 117 558 l 54 558 l 171 664 l 283 569 l 283 528 l 293 517 l 608 664 l 722 569 l 722 528 l 738 528 l 1047 664 l 1272 569 l 1164 506 l 1164 136 l 1272 94 z "},"n":{"ha":850,"x_min":42,"x_max":818,"o":"m 818 94 l 706 -11 l 590 86 l 590 506 l 481 558 l 429 558 l 271 497 l 271 147 l 381 89 l 268 -11 l 103 86 l 42 86 l 42 94 l 51 94 l 151 147 l 151 506 l 103 558 l 42 558 l 154 664 l 271 569 l 271 528 l 283 528 l 596 664 l 757 569 l 818 569 l 708 506 l 708 136 l 769 94 l 818 94 z "},"o":{"ha":850,"x_min":42,"x_max":818,"o":"m 818 569 l 708 506 l 708 86 l 586 86 l 329 -11 l 151 86 l 42 86 l 42 94 l 51 94 l 151 147 l 151 575 l 268 575 l 547 664 l 696 569 l 818 569 m 586 111 l 586 517 l 442 600 l 419 600 l 274 558 l 274 139 l 425 53 l 586 111 z "},"p":{"ha":842,"x_min":22,"x_max":803,"o":"m 803 569 l 693 506 l 693 86 l 571 86 l 310 -11 l 261 22 l 254 11 l 254 -136 l 315 -239 l 132 -336 l 132 86 l 22 86 l 22 94 l 36 94 l 132 147 l 132 569 l 90 658 l 119 653 l 193 619 l 254 569 l 254 528 l 268 528 l 522 611 l 576 664 l 742 569 l 803 569 m 571 94 l 571 517 l 471 558 l 413 558 l 254 506 l 254 139 l 419 42 l 571 94 z "},"q":{"ha":850,"x_min":42,"x_max":818,"o":"m 818 569 l 708 506 l 708 -336 l 538 -239 l 590 -147 l 590 122 l 268 -11 l 103 86 l 42 86 l 42 94 l 51 94 l 151 147 l 151 569 l 274 569 l 547 664 l 696 569 l 818 569 m 586 142 l 586 517 l 442 600 l 413 600 l 274 550 l 274 139 l 358 94 l 454 94 l 586 142 z "},"r":{"ha":738,"x_min":42,"x_max":713,"o":"m 713 569 l 603 506 l 481 506 l 374 600 l 274 558 l 274 147 l 371 94 l 432 94 l 268 -11 l 90 86 l 42 86 l 42 94 l 54 94 l 151 147 l 151 506 l 90 558 l 42 558 l 158 664 l 268 569 l 486 664 l 638 569 l 713 569 z "},"s":{"ha":722,"x_min":32,"x_max":651,"o":"m 651 86 l 396 -11 l 349 -11 l 264 33 l 151 33 l 64 -11 l 32 -11 l 354 317 l 190 317 l 81 369 l 81 569 l 358 664 l 383 664 l 493 611 l 581 611 l 603 633 l 628 664 l 651 664 l 651 644 l 390 328 l 554 328 l 651 283 l 651 86 m 590 600 l 493 558 l 358 558 l 268 600 l 215 569 l 215 369 l 313 328 l 371 328 l 590 600 m 515 86 l 515 275 l 432 317 l 374 317 l 97 36 l 200 94 l 374 94 l 457 56 l 493 56 l 515 86 z "},"t":{"ha":557,"x_min":44,"x_max":493,"o":"m 493 94 l 319 -11 l 154 86 l 93 86 l 93 94 l 107 94 l 203 147 l 203 653 l 44 653 l 44 672 l 203 672 l 203 803 l 154 889 l 322 989 l 322 672 l 493 672 l 493 653 l 322 653 l 322 147 l 419 94 l 493 94 z "},"u":{"ha":864,"x_min":42,"x_max":818,"o":"m 818 94 l 706 -11 l 590 86 l 590 117 l 576 117 l 344 42 l 268 -11 l 103 86 l 42 86 l 42 94 l 51 94 l 151 147 l 151 506 l 103 558 l 42 558 l 154 664 l 271 569 l 271 147 l 367 94 l 442 94 l 590 147 l 590 506 l 481 564 l 596 664 l 757 569 l 818 569 l 708 506 l 708 136 l 769 94 l 818 94 z "},"v":{"ha":788,"x_min":42,"x_max":754,"o":"m 754 569 l 644 506 l 644 128 l 522 128 l 376 86 l 261 -11 l 83 128 l 83 569 l 42 658 q 135 625 83 654 q 206 569 188 596 l 206 189 l 354 97 l 522 147 l 522 506 l 413 564 l 528 664 l 693 569 l 754 569 z "},"w":{"ha":1232,"x_min":36,"x_max":1186,"o":"m 1186 569 l 1079 506 l 1079 128 l 957 128 l 808 86 l 696 -11 l 519 128 l 371 86 l 258 -11 l 81 128 l 81 569 l 36 658 l 54 653 l 64 653 l 139 619 l 200 569 l 200 189 l 354 100 l 519 147 l 519 506 l 410 564 l 525 664 l 699 564 l 638 506 l 638 189 l 786 97 l 957 147 l 957 506 l 847 564 l 964 664 l 1128 569 l 1186 569 z "},"x":{"ha":899,"x_min":36,"x_max":864,"o":"m 864 664 q 806 562 853 607 q 713 517 760 517 q 646 530 683 517 q 590 558 608 543 l 481 369 l 496 336 l 706 336 l 706 317 l 510 317 l 615 156 q 702 108 656 122 q 813 94 749 94 l 703 -11 q 599 18 657 -11 q 510 94 540 47 l 419 264 l 261 -11 q 218 21 244 11 q 144 31 192 31 q 84 21 113 31 q 36 -11 56 11 q 87 91 36 46 q 197 136 138 136 q 267 115 219 136 q 310 94 282 108 l 413 278 l 383 317 l 193 317 l 193 336 l 376 336 l 303 464 q 229 524 285 494 q 93 558 163 558 l 83 558 l 200 664 q 304 623 256 651 q 374 558 353 594 l 474 386 l 638 664 q 683 628 665 638 q 757 611 714 611 q 815 624 790 611 q 864 664 840 638 z "},"y":{"ha":846,"x_min":42,"x_max":818,"o":"m 818 569 l 708 506 l 708 -61 l 661 -200 l 551 -294 l 435 -336 q 342 -272 401 -299 q 193 -242 272 -242 l 151 -244 q 215 -201 182 -214 q 300 -189 249 -189 l 322 -189 q 454 -210 406 -189 q 542 -283 503 -232 l 651 -189 l 651 -94 l 590 22 l 590 128 l 268 -11 l 103 86 l 42 86 l 42 94 l 51 94 l 151 147 l 151 506 l 103 558 l 42 558 l 154 664 l 271 569 l 271 147 l 367 94 l 442 94 l 590 147 l 590 506 l 481 564 l 596 664 l 757 569 l 818 569 z "},"z":{"ha":774,"x_min":36,"x_max":718,"o":"m 718 89 l 606 -11 q 506 24 558 14 q 386 33 453 33 q 214 22 310 33 q 42 -6 118 11 l 358 317 l 149 317 l 149 336 l 374 336 l 657 628 l 651 633 q 479 557 574 592 q 235 506 336 506 q 127 522 181 506 q 36 564 74 538 l 149 664 q 250 628 182 646 q 376 611 318 611 q 524 626 438 611 q 683 664 611 642 l 718 664 l 400 336 l 606 336 l 606 317 l 386 317 l 97 36 q 300 113 206 89 q 515 136 394 136 q 630 128 588 136 q 718 89 672 121 z "},"{":{"ha":290,"x_min":54,"x_max":239,"o":"m 239 558 q 192 486 239 513 q 88 447 174 476 q 203 396 178 417 q 235 339 228 375 q 238 314 238 322 q 217 256 238 283 q 161 200 197 228 q 117 161 132 178 q 93 111 93 135 q 128 31 93 63 q 213 -11 158 3 l 215 -22 q 85 34 117 3 q 54 117 54 65 q 81 186 54 158 q 125 219 114 211 q 197 344 197 269 q 158 405 197 381 q 54 444 119 429 q 174 493 147 469 q 200 553 200 517 q 183 622 200 593 q 128 680 167 651 q 88 711 90 708 q 58 783 58 740 q 111 878 58 844 q 222 919 146 900 l 215 906 q 130 865 163 894 q 97 786 97 835 q 119 738 97 761 q 168 697 131 725 q 239 558 232 642 z "},"|":{"ha":451,"x_min":181,"x_max":251,"o":"m 251 3 l 181 3 l 181 958 l 251 958 l 251 3 z "},"}":{"ha":290,"x_min":14,"x_max":199,"o":"m 14 558 q 61 486 14 513 q 165 447 79 476 q 50 396 75 417 q 20 349 25 375 q 15 314 15 322 q 38 253 15 283 q 92 200 56 228 q 136 161 121 178 q 160 111 160 135 q 127 33 160 63 q 40 -11 94 3 l 38 -22 q 167 34 136 3 q 199 117 199 65 q 172 186 199 158 q 128 219 139 211 q 56 344 56 269 q 94 405 56 381 q 199 444 133 429 q 79 493 106 469 q 53 553 53 517 q 69 622 53 593 q 124 680 86 651 q 165 711 163 708 q 194 783 194 740 q 142 878 194 844 q 31 919 107 900 l 38 906 q 123 865 90 894 q 156 786 156 835 q 133 738 156 761 q 85 697 122 725 q 14 558 21 642 z "},"~":{"ha":1150,"x_min":74,"x_max":1074,"o":"m 1074 769 l 1038 653 l 925 592 l 779 592 l 683 633 l 464 781 l 367 822 l 244 822 l 144 781 l 83 686 l 83 592 l 74 592 l 74 706 l 149 842 l 244 883 l 367 883 l 500 822 l 706 686 l 803 642 l 903 642 l 1015 694 l 1064 778 l 1064 883 l 1074 883 l 1074 769 z "},"‚":{"ha":290,"x_min":42,"x_max":210,"o":"m 210 -61 l 161 -147 l 64 -189 l 49 -194 l 54 -181 l 151 -136 l 151 -50 l 42 36 l 151 136 l 210 53 l 210 -61 z "},"ƒ":{"ha":694,"x_min":10,"x_max":681,"o":"m 681 847 q 662 799 681 817 q 615 782 643 782 q 585 792 597 782 q 564 829 564 807 q 575 864 564 843 q 582 881 582 876 q 551 899 582 899 q 461 801 490 899 q 425 565 440 732 l 600 565 l 586 522 l 419 522 q 397 351 414 488 q 364 122 376 189 q 275 -161 328 -72 q 119 -262 215 -262 q 39 -235 68 -262 q 10 -165 10 -207 q 26 -122 10 -139 q 74 -104 43 -104 q 124 -156 124 -104 q 113 -189 124 -171 q 103 -211 103 -207 q 129 -229 103 -229 q 214 -151 183 -229 q 246 13 238 -92 l 267 251 q 276 376 267 308 q 299 501 281 401 l 301 522 l 147 522 l 161 565 l 310 565 q 364 778 328 696 q 565 939 435 939 q 648 910 615 939 q 681 847 681 881 z "},"„":{"ha":525,"x_min":42,"x_max":474,"o":"m 474 -61 l 425 -147 l 328 -189 l 313 -194 l 318 -181 l 415 -136 l 415 -50 l 306 36 l 415 136 l 474 53 l 474 -61 m 210 -61 l 161 -147 l 64 -189 l 49 -194 l 54 -181 l 151 -136 l 151 -50 l 42 36 l 151 136 l 210 53 l 210 -61 z "},"…":{"ha":963,"x_min":49,"x_max":917,"o":"m 917 33 l 817 -11 l 783 -11 l 688 36 l 800 136 l 917 33 m 597 33 l 497 -11 l 464 -11 l 368 36 l 481 136 l 597 33 m 278 33 l 178 -11 l 144 -11 l 49 36 l 161 136 l 278 33 z "},"†":{"ha":694,"x_min":82,"x_max":614,"o":"m 614 678 q 603 638 614 653 q 557 617 588 617 q 460 649 547 617 q 363 664 418 664 q 369 521 363 575 q 421 379 382 418 q 383 224 400 336 q 365 -8 365 113 l 364 -207 l 335 -207 l 333 -8 q 315 221 333 114 q 275 379 297 328 q 326 519 313 418 q 333 664 333 572 q 197 632 265 664 q 139 617 165 617 q 95 633 108 617 q 82 678 82 650 q 99 723 82 708 q 139 738 117 738 q 236 706 150 738 q 333 689 281 689 q 317 831 333 769 q 283 957 300 893 q 302 1003 283 985 q 349 1022 321 1022 q 393 1003 374 1022 q 413 957 413 983 q 397 888 413 931 q 363 689 363 789 q 482 713 431 689 q 557 738 533 738 q 597 723 579 738 q 614 678 614 708 z "},"‡":{"ha":694,"x_min":81,"x_max":614,"o":"m 614 678 q 603 638 614 653 q 557 617 588 617 q 460 649 547 617 q 363 664 418 664 l 363 631 q 369 508 363 551 q 418 389 382 429 q 369 269 383 351 q 361 143 361 218 l 361 118 q 497 150 429 118 q 556 165 529 165 q 601 146 586 165 q 613 104 613 132 q 595 59 613 74 q 556 44 578 44 q 458 76 544 44 q 361 93 414 93 q 386 -79 361 -4 q 411 -175 411 -154 q 392 -221 411 -201 q 347 -240 372 -240 q 301 -221 321 -240 q 282 -175 282 -201 q 297 -106 282 -149 q 332 93 332 -7 q 213 69 264 93 q 138 44 161 44 q 100 57 115 44 q 81 104 81 74 q 94 147 81 129 q 138 165 107 165 q 235 133 147 165 q 332 118 276 118 l 332 144 q 325 275 332 229 q 276 389 313 358 q 319 493 306 425 q 333 664 333 561 q 197 632 265 664 q 139 617 165 617 q 95 633 108 617 q 82 678 82 650 q 99 723 82 708 q 139 738 117 738 q 236 706 150 738 q 333 689 281 689 q 317 831 333 769 q 283 957 300 893 q 302 1003 283 985 q 349 1022 321 1022 q 393 1003 374 1022 q 413 957 413 983 q 397 888 413 931 q 363 689 363 789 q 482 713 431 689 q 557 738 533 738 q 597 723 579 738 q 614 678 614 708 z "},"ˆ":{"ha":686,"x_min":100,"x_max":590,"o":"m 590 1072 l 293 1192 l 129 1067 l 100 1094 l 268 1258 l 432 1294 l 590 1103 l 590 1072 z "},"‰":{"ha":1225,"x_min":90,"x_max":1156,"o":"m 1156 33 l 1094 -11 l 924 -11 l 875 33 l 875 181 l 924 231 l 1094 231 l 1156 181 l 1156 33 m 375 483 l 314 439 l 143 439 l 94 483 l 94 631 l 143 681 l 314 681 l 375 631 l 375 483 m 808 33 l 747 -11 l 576 -11 l 528 33 l 528 181 l 576 231 l 747 231 l 808 181 l 808 33 m 808 600 l 149 -11 l 90 -11 l 90 42 l 735 653 l 808 653 l 808 600 m 1094 79 l 1094 139 l 1065 167 l 967 167 l 938 136 l 938 81 l 968 51 l 1063 51 l 1094 79 m 314 529 l 314 589 l 285 617 l 186 617 l 157 586 l 157 531 l 188 501 l 282 501 l 314 529 m 747 79 l 747 139 l 718 167 l 619 167 l 590 136 l 590 81 l 621 51 l 715 51 l 747 79 z "},"Š":{"ha":1160,"x_min":61,"x_max":1121,"o":"m 1121 464 l 742 3 l 732 -11 l 708 -11 q 645 18 688 3 q 576 33 603 33 l 268 33 q 169 22 225 33 q 61 -11 113 10 q 246 95 142 54 q 425 136 350 136 l 635 136 q 713 122 664 136 q 779 94 761 107 l 793 94 l 1003 411 l 1003 506 q 939 562 1003 524 q 842 600 875 600 l 561 600 l 476 475 l 732 475 q 778 449 761 475 q 796 394 796 422 q 781 333 796 361 q 742 286 765 306 l 713 272 l 718 294 q 678 347 718 324 q 613 369 639 369 l 403 369 l 281 264 l 183 222 l 122 222 l 122 283 l 181 233 l 271 275 l 381 364 l 367 369 l 222 369 q 115 431 169 369 q 61 567 61 493 q 144 508 85 540 q 232 475 204 475 l 464 475 l 551 600 l 381 600 q 231 653 328 600 q 135 739 135 707 l 135 831 q 229 943 135 892 q 381 989 313 989 l 644 989 l 842 947 l 644 706 l 938 706 q 1051 665 982 706 q 1121 589 1121 625 l 1121 464 m 718 847 l 547 947 l 415 978 l 376 978 q 259 938 335 978 q 183 867 183 897 l 183 792 q 263 740 183 775 q 381 706 342 706 l 622 706 l 718 847 m 728 1272 l 560 1108 l 396 1072 l 238 1264 l 238 1294 l 535 1175 l 699 1300 l 728 1272 z "},"‹":{"ha":1099,"x_min":81,"x_max":993,"o":"m 993 -11 l 81 411 l 81 442 l 960 875 l 993 875 l 993 844 l 139 425 l 993 22 l 993 -11 z "},"Œ":{"ha":1590,"x_min":71,"x_max":1536,"o":"m 1536 94 l 1426 -11 q 1353 20 1400 7 q 1268 33 1306 33 l 853 33 q 781 11 851 33 q 693 -11 710 -11 l 476 -11 q 206 117 319 -11 q 71 536 71 268 q 185 856 71 715 q 413 989 293 989 q 274 842 349 989 q 193 519 193 685 q 331 111 193 251 q 561 6 433 6 l 656 6 l 767 72 l 767 253 q 723 208 747 226 q 672 183 699 189 l 672 464 l 572 464 l 571 303 q 535 232 558 260 q 451 181 506 199 l 451 800 l 688 915 q 631 939 647 939 q 567 914 618 939 q 517 889 550 906 l 624 989 l 804 989 q 853 964 824 978 q 888 950 882 950 q 939 960 907 950 q 1007 986 971 969 l 901 886 l 793 886 l 792 81 q 822 94 807 88 q 965 117 878 117 l 965 653 l 1085 894 l 1146 947 l 1242 989 l 1388 989 q 1472 976 1429 989 q 1536 947 1514 964 l 1419 844 l 1317 886 l 1194 886 l 1094 844 l 988 639 l 988 314 l 1085 517 l 1146 569 l 1265 569 l 1365 528 l 1378 511 l 1261 411 l 1194 464 l 1094 464 l 988 286 l 988 128 l 1397 128 q 1472 119 1429 128 q 1536 94 1514 110 m 767 742 l 767 886 l 731 886 l 708 901 l 571 836 l 571 569 l 672 569 l 672 611 q 703 676 675 635 q 767 742 732 717 z "},"‘":{"ha":306,"x_min":81,"x_max":249,"o":"m 249 761 l 129 661 l 81 744 l 81 869 l 129 953 l 239 986 l 164 956 l 139 933 l 139 858 l 249 761 z "},"’":{"ha":290,"x_min":42,"x_max":210,"o":"m 210 781 l 161 697 l 51 664 l 125 694 l 151 717 l 151 792 l 42 889 l 161 989 l 210 906 l 210 781 z "},"“":{"ha":576,"x_min":51,"x_max":513,"o":"m 513 656 l 500 656 l 390 931 l 444 992 l 513 950 l 513 656 m 171 656 l 161 656 l 51 931 l 117 992 l 171 950 l 171 656 z "},"”":{"ha":632,"x_min":74,"x_max":535,"o":"m 535 928 l 425 653 l 415 653 l 415 947 l 471 989 l 535 928 m 197 928 l 88 653 l 74 653 l 74 947 l 142 989 l 197 928 z "},"•":{"ha":486,"x_min":56,"x_max":431,"o":"m 431 460 q 376 327 431 382 q 243 272 321 272 q 110 326 164 272 q 56 460 56 381 q 109 592 56 538 q 243 647 163 647 q 376 593 322 647 q 431 460 431 539 z "},"–":{"ha":850,"x_min":1,"x_max":849,"o":"m 849 414 l 1 414 l 1 475 l 849 475 l 849 414 z "},"—":{"ha":1329,"x_min":1,"x_max":1329,"o":"m 1329 414 l 1 414 l 1 475 l 1329 475 l 1329 414 z "},"˜":{"ha":744,"x_min":125,"x_max":654,"o":"m 654 1217 q 569 1129 583 1140 q 451 1086 515 1086 q 340 1133 444 1086 q 254 1156 292 1156 q 211 1129 239 1156 q 161 1078 204 1122 l 125 1108 q 236 1197 194 1178 q 329 1217 278 1217 q 449 1185 360 1217 q 525 1169 490 1169 q 554 1179 539 1169 q 615 1217 606 1214 l 654 1217 z "},"™":{"ha":1361,"x_min":42,"x_max":1329,"o":"m 1329 1025 q 1269 1006 1286 1025 q 1251 949 1251 988 l 1251 594 q 1259 535 1251 543 q 1321 519 1267 526 l 1321 492 l 1085 492 l 1085 519 q 1145 534 1138 525 q 1153 594 1153 543 l 1153 917 l 939 489 l 924 489 l 717 914 l 714 610 q 728 542 714 561 q 788 519 742 524 l 788 492 l 606 492 l 606 519 q 664 543 650 524 q 678 610 678 563 l 678 956 q 582 1025 650 1025 l 582 1053 l 750 1053 l 964 624 l 1186 1053 l 1329 1053 l 1329 1025 m 521 931 l 493 931 q 464 997 482 975 q 400 1025 440 1025 l 331 1025 l 331 594 q 338 535 331 543 q 400 519 346 526 l 400 492 l 163 492 l 163 519 q 224 535 215 525 q 232 594 232 544 l 232 1025 l 164 1025 q 102 999 124 1025 q 69 931 81 974 l 42 931 l 42 1053 l 521 1053 l 521 931 z "},"š":{"ha":722,"x_min":32,"x_max":651,"o":"m 651 86 l 396 -11 l 349 -11 l 264 33 l 151 33 l 64 -11 l 32 -11 l 354 317 l 190 317 l 81 369 l 81 569 l 358 664 l 383 664 l 493 611 l 581 611 l 603 633 l 628 664 l 651 664 l 651 644 l 390 328 l 554 328 l 651 283 l 651 86 m 590 600 l 493 558 l 358 558 l 268 600 l 215 569 l 215 369 l 313 328 l 371 328 l 590 600 m 515 86 l 515 275 l 432 317 l 374 317 l 97 36 l 200 94 l 374 94 l 457 56 l 493 56 l 515 86 m 586 922 l 418 758 l 254 722 l 96 914 l 96 944 l 393 825 l 557 950 l 586 922 z "},"›":{"ha":1099,"x_min":99,"x_max":1011,"o":"m 1011 411 l 99 -11 l 99 22 l 953 425 l 99 844 l 99 875 l 132 875 l 1011 442 l 1011 411 z "},"œ":{"ha":1108,"x_min":42,"x_max":1083,"o":"m 1083 469 l 707 286 l 707 147 l 864 94 l 703 -11 l 551 72 l 329 -11 l 151 86 l 42 86 l 42 94 l 51 94 l 151 147 l 151 575 l 268 575 l 547 664 l 664 590 l 919 664 l 1083 469 m 951 425 l 815 600 l 707 558 l 707 306 l 951 425 m 586 111 l 586 517 l 442 600 l 419 600 l 274 558 l 274 139 l 425 53 l 586 111 z "},"Ÿ":{"ha":1121,"x_min":42,"x_max":1106,"o":"m 1106 886 l 993 833 l 993 -147 l 944 -231 l 818 -336 l 496 -242 l 215 -242 l 215 -231 l 410 -189 l 786 -189 l 922 -231 l 983 -136 l 983 -11 l 886 128 l 738 94 l 551 -11 l 278 86 l 103 86 l 103 94 l 117 94 l 215 147 l 215 464 l 117 464 l 42 411 l 42 517 l 103 569 l 215 569 l 215 844 q 178 918 215 871 q 103 989 140 965 q 252 920 169 989 q 335 800 335 851 l 335 136 l 544 136 l 544 800 l 813 894 l 928 989 l 1106 886 m 869 653 l 869 853 l 822 883 l 557 789 l 557 653 l 664 611 l 764 611 l 869 653 m 869 383 l 869 642 l 776 600 l 651 600 l 557 642 l 557 381 l 651 422 l 786 422 l 869 383 m 869 139 l 869 369 l 774 411 l 651 411 l 557 369 l 557 139 l 738 108 l 869 139 m 983 1164 l 807 1053 l 651 1169 l 769 1247 l 893 1158 l 949 1197 l 983 1164 m 606 1131 l 486 1053 l 365 1142 l 303 1100 l 272 1131 l 447 1247 l 606 1131 z "}," ":{"ha":806,"x_min":0,"x_max":0,"o":""},"¡":{"ha":486,"x_min":85,"x_max":424,"o":"m 424 -122 l 314 -69 l 265 447 l 256 447 l 194 -69 l 85 -125 q 190 -179 131 -140 q 260 -233 242 -212 q 322 -181 264 -219 q 424 -122 379 -142 m 375 731 l 279 775 l 243 775 l 146 728 l 260 628 l 375 731 z "},"¢":{"ha":742,"x_min":26,"x_max":693,"o":"m 693 569 l 586 506 l 464 506 l 403 556 l 403 94 l 561 158 l 561 128 l 403 56 l 403 -72 l 354 -72 l 354 33 l 251 -11 l 74 86 l 26 86 l 26 94 l 39 94 l 135 147 l 135 569 l 354 631 l 354 739 l 403 739 l 403 644 l 471 664 l 622 569 l 693 569 m 354 94 l 354 581 l 258 550 l 258 147 l 354 94 z "},"£":{"ha":1044,"x_min":81,"x_max":999,"o":"m 822 950 l 706 847 l 603 889 l 425 917 q 316 881 361 917 q 271 794 271 844 q 282 739 271 769 q 306 686 285 732 l 393 478 l 596 478 l 596 439 l 403 439 q 417 389 410 415 q 425 342 425 363 q 307 171 425 276 q 119 33 215 89 q 213 139 165 72 q 271 269 271 221 q 242 439 271 360 l 81 439 l 81 478 l 229 478 q 188 575 197 549 q 168 678 168 631 q 272 901 168 810 q 528 992 375 992 l 674 992 q 758 979 715 992 q 822 950 800 967 m 999 44 l 889 -61 q 816 -30 864 -43 q 732 -17 768 -17 l 315 -17 q 219 -27 271 -17 q 110 -61 168 -37 q 263 32 167 -10 q 451 78 368 78 l 860 78 q 934 69 893 78 q 999 44 975 60 z "},"¤":{"ha":938,"x_min":61,"x_max":842,"o":"m 842 147 l 789 108 l 661 208 q 552 166 601 179 q 451 153 503 153 q 249 208 350 153 l 117 108 l 64 147 l 193 244 q 138 322 156 286 q 119 397 119 357 q 135 472 119 438 q 190 556 151 506 l 61 656 l 113 692 l 242 592 q 451 650 338 650 q 661 592 543 650 l 793 692 l 842 656 l 713 556 q 763 476 749 510 q 776 400 776 443 q 763 326 776 357 q 706 244 749 294 l 842 147 m 686 400 q 618 526 686 475 q 451 578 550 578 q 285 526 354 578 q 215 400 215 475 q 285 275 215 328 q 451 222 354 222 q 617 274 549 222 q 686 400 686 326 z "},"¥":{"ha":1279,"x_min":71,"x_max":1225,"o":"m 1225 464 l 1067 464 l 1067 356 l 1221 356 l 1221 247 l 1067 247 l 1067 -147 l 1018 -231 l 893 -336 l 571 -242 l 286 -242 l 286 -231 l 483 -189 l 860 -189 l 986 -225 l 1039 -133 l 1039 -12 l 957 128 l 625 -11 l 349 86 l 178 86 l 178 94 l 190 94 l 286 147 l 286 247 l 74 247 l 74 356 l 286 356 l 286 464 l 71 464 l 71 569 l 286 569 l 286 844 q 250 918 286 871 q 178 989 214 965 q 327 920 244 989 q 410 800 410 851 l 410 569 l 618 569 l 618 800 l 886 894 l 1003 989 l 1176 886 l 1067 833 l 1067 569 l 1225 569 l 1225 464 m 944 569 l 944 853 l 896 883 l 632 789 l 632 569 l 944 569 m 944 356 l 944 464 l 632 464 l 632 356 l 944 356 m 944 247 l 632 247 l 632 139 l 822 104 l 943 158 l 944 247 m 618 356 l 618 464 l 410 464 l 410 356 l 618 356 m 618 136 l 618 247 l 410 247 l 410 136 l 618 136 z "},"¦":{"ha":451,"x_min":181,"x_max":251,"o":"m 251 3 l 181 3 l 181 958 l 251 958 l 251 3 z "},"§":{"ha":847,"x_min":54,"x_max":783,"o":"m 783 950 l 667 847 l 564 889 l 313 928 q 210 895 250 928 q 171 811 171 863 q 318 676 171 724 q 593 599 456 638 q 742 422 742 539 q 688 286 742 368 q 635 208 661 247 q 706 69 706 153 q 651 -118 706 -40 q 483 -208 589 -208 l 335 -208 l 268 -167 l 125 -167 l 54 -203 q 130 -112 79 -160 q 203 -64 181 -64 l 303 -64 l 467 -158 l 542 -158 q 594 -83 568 -121 q 622 3 622 -39 q 578 92 622 58 q 471 139 543 118 q 201 207 336 172 q 61 386 61 260 q 115 524 61 440 q 171 603 126 542 q 115 676 132 638 q 97 761 97 714 q 185 928 97 860 q 400 997 274 997 l 628 997 q 715 983 669 997 q 783 950 760 968 m 622 356 q 492 499 622 439 q 190 586 340 542 q 143 519 157 540 q 117 450 117 481 q 304 289 117 333 q 464 258 422 268 q 508 246 486 253 q 561 228 531 239 q 607 301 583 264 q 622 356 622 331 z "},"¨":{"ha":793,"x_min":93,"x_max":706,"o":"m 706 1181 l 554 1069 l 419 1186 l 522 1264 l 628 1175 l 676 1214 l 706 1181 m 381 1147 l 278 1069 l 174 1158 l 119 1117 l 93 1147 l 244 1264 l 381 1147 z "},"©":{"ha":1296,"x_min":71,"x_max":1244,"o":"m 1244 475 q 1072 119 1244 263 q 657 -25 899 -25 q 243 118 415 -25 q 71 475 71 261 q 242 832 71 689 q 657 975 414 975 q 1072 832 899 975 q 1244 475 1244 689 m 1128 475 q 992 772 1128 653 q 657 892 856 892 q 320 773 457 892 q 183 475 183 654 q 320 176 183 296 q 657 56 457 56 q 992 174 857 56 q 1128 475 1128 293 m 964 383 q 864 226 942 283 q 681 169 786 169 q 430 256 525 169 q 335 478 335 343 q 427 697 335 611 q 674 783 519 783 q 866 729 786 783 q 960 575 946 675 l 860 575 q 795 661 846 628 q 674 694 744 694 q 510 635 568 694 q 451 478 451 575 q 514 321 451 386 q 681 256 576 256 q 799 291 750 256 q 860 383 849 326 l 964 383 z "},"ª":{"ha":576,"x_min":97,"x_max":500,"o":"m 496 597 l 429 542 l 358 594 l 358 614 l 275 592 l 210 542 q 131 572 165 542 q 97 642 97 601 q 103 690 97 667 q 122 725 108 713 l 193 789 l 97 869 l 97 881 l 168 939 l 268 881 l 300 881 l 396 939 l 467 881 l 432 847 l 432 625 l 467 597 l 496 597 m 500 431 l 103 431 l 103 475 l 500 475 l 500 431 m 358 626 l 358 844 l 296 869 l 274 869 l 210 844 l 151 844 l 274 733 l 268 731 l 206 783 l 140 726 l 139 711 q 144 675 139 693 q 162 638 149 657 q 199 612 175 618 q 257 606 224 606 l 282 606 l 358 626 z "},"«":{"ha":596,"x_min":83,"x_max":528,"o":"m 528 97 l 486 22 l 315 192 l 493 361 l 510 342 l 367 203 l 528 97 m 293 97 l 251 22 l 83 192 l 258 361 l 274 342 l 132 203 l 293 97 z "},"¬":{"ha":828,"x_min":54,"x_max":783,"o":"m 783 131 l 676 131 l 676 394 l 54 394 l 54 486 l 783 486 l 783 131 z "},"­":{"ha":864,"x_min":113,"x_max":751,"o":"m 751 414 l 113 414 l 113 475 l 751 475 l 751 414 z "},"®":{"ha":1279,"x_min":54,"x_max":1221,"o":"m 1221 469 q 1050 117 1221 258 q 638 -25 879 -25 q 224 115 394 -25 q 54 469 54 256 q 225 822 54 681 q 638 964 396 964 q 1050 823 879 964 q 1221 469 1221 682 m 1106 469 q 972 763 1106 646 q 638 881 838 881 q 303 763 439 881 q 168 469 168 646 q 303 174 168 292 q 638 56 438 56 q 972 173 838 56 q 1106 469 1106 290 m 922 183 l 808 183 l 632 431 l 515 431 l 515 183 l 415 183 l 415 756 l 671 756 q 848 716 790 756 q 906 592 906 676 q 859 481 906 519 q 735 436 813 443 l 922 183 m 799 597 q 758 663 799 646 q 654 681 718 681 l 515 681 l 515 503 l 638 503 q 751 517 718 503 q 799 597 799 536 z "},"¯":{"ha":651,"x_min":54,"x_max":600,"o":"m 600 872 l 54 872 l 54 950 l 600 950 l 600 872 z "},"°":{"ha":444,"x_min":103,"x_max":364,"o":"m 364 1086 q 327 1008 364 1040 q 235 975 290 975 q 142 1007 181 975 q 103 1086 103 1039 q 142 1163 103 1131 q 235 1194 181 1194 q 327 1163 290 1194 q 364 1086 364 1132 m 332 1083 q 304 1143 332 1119 q 232 1167 276 1167 q 167 1143 194 1167 q 139 1086 139 1119 q 167 1025 139 1050 q 235 1000 194 1000 q 304 1025 276 1000 q 332 1083 332 1050 z "},"±":{"ha":1028,"x_min":93,"x_max":922,"o":"m 922 542 l 532 542 l 532 164 l 474 164 l 474 542 l 93 542 l 97 608 l 474 606 l 474 983 l 532 983 l 532 606 l 922 608 l 922 542 m 835 14 l 193 14 l 193 75 l 835 75 l 835 14 z "},"²":{"ha":683,"x_min":107,"x_max":574,"o":"m 574 483 l 515 431 q 436 447 485 442 q 332 453 388 453 q 199 448 238 453 q 132 431 161 443 l 107 431 l 107 575 q 170 676 107 624 q 283 728 233 728 l 444 728 l 444 919 l 358 956 l 283 903 l 193 903 l 142 925 l 142 939 q 243 951 211 939 q 290 989 275 964 l 306 989 l 447 936 l 510 936 l 510 714 l 293 714 q 179 661 239 714 q 119 564 119 608 l 119 453 l 125 447 q 249 501 188 485 q 381 517 310 517 q 498 512 460 517 q 574 494 536 507 l 574 483 z "},"³":{"ha":613,"x_min":97,"x_max":510,"o":"m 510 483 l 442 483 l 332 453 l 319 453 l 271 431 l 251 431 q 209 467 239 450 q 161 483 179 483 l 97 483 l 97 494 l 149 517 l 239 517 q 278 502 251 517 q 315 469 304 488 l 435 500 l 435 656 l 315 706 l 300 692 l 281 692 l 281 703 l 293 703 l 293 714 l 281 714 l 281 728 l 300 728 l 315 714 l 435 761 l 435 919 l 322 956 l 264 903 l 183 903 l 129 925 l 129 936 q 200 953 165 936 q 251 989 235 969 l 271 989 l 442 936 l 510 936 l 510 744 l 442 744 l 342 711 l 442 675 l 510 675 l 510 483 z "},"´":{"ha":532,"x_min":113,"x_max":457,"o":"m 457 1297 l 149 1067 l 113 1067 l 113 1106 l 200 1236 l 457 1297 z "},"µ":{"ha":596,"x_min":42,"x_max":818,"o":"m 818 94 l 706 -11 l 590 86 l 590 117 l 576 117 l 344 42 l 268 -11 l 103 86 l 42 86 l 42 94 l 51 94 l 151 147 l 151 506 l 103 558 l 42 558 l 154 664 l 271 569 l 271 147 l 367 94 l 442 94 l 590 147 l 590 506 l 481 564 l 596 664 l 757 569 l 818 569 l 708 506 l 708 136 l 769 94 l 818 94 z "},"¶":{"ha":796,"x_min":74,"x_max":696,"o":"m 696 0 l 603 0 l 603 928 l 447 928 l 447 0 l 351 0 l 351 575 q 152 634 231 575 q 74 781 74 693 q 153 942 74 889 q 376 994 233 994 l 696 994 l 696 0 z "},"·":{"ha":596,"x_min":125,"x_max":325,"o":"m 325 350 q 297 290 325 315 q 225 264 268 264 q 155 290 185 264 q 125 350 125 315 q 155 413 125 388 q 225 439 185 439 q 295 413 265 439 q 325 350 325 388 z "},"∙":{"ha":596,"x_min":125,"x_max":325,"o":"m 325 350 q 297 290 325 315 q 225 264 268 264 q 155 290 185 264 q 125 350 125 315 q 155 413 125 388 q 225 439 185 439 q 295 413 265 439 q 325 350 325 388 z "},"¸":{"ha":667,"x_min":203,"x_max":461,"o":"m 461 -203 q 406 -299 461 -262 q 261 -336 351 -336 l 240 -336 q 222 -336 231 -336 q 203 -333 210 -333 l 215 -292 l 244 -294 q 306 -281 282 -294 q 329 -242 329 -267 q 294 -198 329 -210 q 215 -186 260 -186 l 351 -94 q 461 -203 461 -126 z "},"¹":{"ha":415,"x_min":100,"x_max":325,"o":"m 325 489 l 225 431 l 100 483 l 100 489 l 107 489 l 161 517 l 161 861 l 122 919 l 113 919 l 100 936 l 107 944 l 203 992 l 229 944 l 229 517 q 267 497 239 506 q 325 489 294 489 z "},"º":{"ha":576,"x_min":42,"x_max":519,"o":"m 519 894 l 451 856 l 451 594 l 376 594 l 281 564 l 215 539 l 110 594 l 42 594 l 42 600 l 49 600 l 110 633 l 110 897 l 181 897 l 351 953 l 444 894 l 519 894 m 506 433 l 44 433 l 44 478 l 506 478 l 506 433 m 376 607 l 376 861 l 286 914 l 274 914 l 183 886 l 183 628 l 281 576 l 376 607 z "},"»":{"ha":596,"x_min":0,"x_max":444,"o":"m 0 97 l 42 22 l 213 192 l 35 361 l 18 342 l 161 203 l 0 97 m 235 97 l 276 22 l 444 192 l 269 361 l 254 342 l 396 203 l 235 97 z "},"¼":{"ha":1206,"x_min":119,"x_max":1125,"o":"m 1125 125 l 1111 125 l 1083 156 l 967 156 l 967 86 q 992 65 967 75 q 1054 56 1017 56 l 1060 56 l 1060 44 l 967 -11 l 954 -11 q 899 26 921 15 q 825 44 863 44 l 825 56 l 835 56 l 889 86 l 889 156 l 596 156 l 596 306 l 918 583 l 931 583 l 996 528 l 996 508 l 967 467 l 967 167 l 1083 167 l 1111 192 l 1125 192 l 1125 125 m 935 978 l 222 -28 l 129 -28 l 842 978 l 935 978 m 354 456 l 251 394 l 119 450 l 119 456 l 125 456 l 183 486 l 183 847 l 142 908 l 135 908 l 119 922 l 125 933 l 229 981 l 254 933 l 254 486 q 295 465 264 475 q 354 456 326 456 m 889 169 l 889 533 l 676 353 l 676 169 l 889 169 z "},"½":{"ha":1240,"x_min":119,"x_max":1154,"o":"m 1154 39 l 1086 -17 q 1017 1 1049 -4 q 915 6 986 6 l 893 6 q 764 1 818 6 q 676 -17 710 -3 l 647 -17 l 647 136 q 716 244 647 188 q 838 300 785 300 l 1011 300 l 1011 503 l 918 542 q 881 504 910 525 q 838 483 851 483 l 744 486 l 683 511 l 686 522 q 797 537 760 522 q 844 578 833 551 l 867 578 l 1018 522 l 1079 522 l 1079 286 l 850 286 q 728 229 792 286 q 664 125 664 172 l 664 6 l 667 0 q 805 58 738 40 q 947 75 872 75 q 1067 69 1028 75 q 1154 50 1106 64 l 1154 39 m 935 978 l 222 -28 l 129 -28 l 842 978 l 935 978 m 354 456 l 251 394 l 119 450 l 119 456 l 125 456 l 183 486 l 183 847 l 142 908 l 135 908 l 119 922 l 125 933 l 229 981 l 254 933 l 254 486 q 295 465 264 475 q 354 456 326 456 z "},"¾":{"ha":1318,"x_min":58,"x_max":1253,"o":"m 1253 125 l 1240 125 l 1211 156 l 1096 156 l 1096 86 q 1121 65 1096 75 q 1182 56 1146 56 l 1189 56 l 1189 44 l 1096 -11 l 1083 -11 q 1028 26 1046 18 q 954 44 993 44 l 954 56 l 964 56 l 1018 86 l 1018 156 l 725 156 l 725 306 l 1047 583 l 1060 583 l 1125 528 l 1125 508 l 1096 467 l 1096 167 l 1211 167 l 1240 192 l 1253 192 l 1253 125 m 1064 978 l 351 -28 l 258 -28 l 969 978 l 1064 978 m 493 453 l 422 453 l 310 422 l 293 422 l 242 397 l 222 397 q 175 435 207 417 q 125 453 143 453 l 58 453 l 58 464 l 113 489 l 206 489 q 251 473 224 489 q 293 436 279 457 l 415 469 l 415 636 l 290 689 l 271 675 l 251 675 l 251 686 l 268 686 l 268 700 l 251 700 l 251 714 l 271 714 l 290 700 l 415 750 l 415 917 l 300 956 l 235 900 l 151 900 l 93 925 l 93 936 q 167 953 132 936 q 222 992 201 971 l 242 992 l 422 936 l 493 936 l 493 731 l 422 731 l 315 694 l 422 658 l 493 658 l 493 453 m 1018 169 l 1018 533 l 806 353 l 806 169 l 1018 169 z "},"¿":{"ha":813,"x_min":-37,"x_max":636,"o":"m -37 -53 q 39 133 -37 57 q 260 269 104 199 l 294 386 l 294 397 l 304 397 l 304 386 l 365 239 l 256 239 q 138 151 183 221 q 86 -36 86 75 q 139 -199 86 -136 q 247 -256 186 -256 l 365 -256 q 488 -179 451 -256 q 514 -36 514 -125 l 636 -78 q 538 -215 622 -156 q 369 -275 453 -275 l 233 -275 q 44 -209 125 -275 q -37 -53 -37 -143 m 185 681 l 282 725 l 318 725 l 414 678 l 299 578 l 185 681 z "},"À":{"ha":1306,"x_min":29,"x_max":1260,"o":"m 1260 136 l 1150 -11 l 1079 -11 q 1044 2 1061 -11 q 1018 33 1026 15 l 849 356 l 444 356 l 332 136 q 480 121 422 136 q 554 89 538 106 l 439 -11 q 372 20 424 7 q 283 33 321 33 q 122 24 175 33 q 29 -11 69 14 l 139 94 q 215 122 164 108 q 300 136 267 136 l 542 594 q 500 664 542 625 q 425 694 468 694 q 367 682 389 694 q 335 653 353 675 l 306 653 q 376 715 336 689 q 513 758 442 758 q 576 740 554 758 q 600 706 589 729 l 628 769 q 617 822 622 803 q 486 939 579 939 q 386 901 432 939 q 335 844 367 886 l 310 844 q 432 951 356 911 q 600 992 508 992 q 663 984 636 992 q 713 947 689 976 l 1150 136 l 1260 136 m 842 381 l 651 747 l 642 747 l 454 381 l 842 381 m 549 1067 l 513 1067 l 204 1297 l 461 1236 l 549 1106 l 549 1067 z "},"Á":{"ha":1306,"x_min":29,"x_max":1260,"o":"m 1260 136 l 1150 -11 l 1079 -11 q 1044 2 1061 -11 q 1018 33 1026 15 l 849 356 l 444 356 l 332 136 q 480 121 422 136 q 554 89 538 106 l 439 -11 q 372 20 424 7 q 283 33 321 33 q 122 24 175 33 q 29 -11 69 14 l 139 94 q 215 122 164 108 q 300 136 267 136 l 542 594 q 500 664 542 625 q 425 694 468 694 q 367 682 389 694 q 335 653 353 675 l 306 653 q 376 715 336 689 q 513 758 442 758 q 576 740 554 758 q 600 706 589 729 l 628 769 q 617 822 622 803 q 486 939 579 939 q 386 901 432 939 q 335 844 367 886 l 310 844 q 432 951 356 911 q 600 992 508 992 q 663 984 636 992 q 713 947 689 976 l 1150 136 l 1260 136 m 842 381 l 651 747 l 642 747 l 454 381 l 842 381 m 936 1276 l 628 1046 l 592 1046 l 592 1085 l 679 1215 l 936 1276 z "},"Â":{"ha":1306,"x_min":29,"x_max":1260,"o":"m 1260 136 l 1150 -11 l 1079 -11 q 1044 2 1061 -11 q 1018 33 1026 15 l 849 356 l 444 356 l 332 136 q 480 121 422 136 q 554 89 538 106 l 439 -11 q 372 20 424 7 q 283 33 321 33 q 122 24 175 33 q 29 -11 69 14 l 139 94 q 215 122 164 108 q 300 136 267 136 l 542 594 q 500 664 542 625 q 425 694 468 694 q 367 682 389 694 q 335 653 353 675 l 306 653 q 376 715 336 689 q 513 758 442 758 q 576 740 554 758 q 600 706 589 729 l 628 769 q 617 822 622 803 q 486 939 579 939 q 386 901 432 939 q 335 844 367 886 l 310 844 q 432 951 356 911 q 600 992 508 992 q 663 984 636 992 q 713 947 689 976 l 1150 136 l 1260 136 m 842 381 l 651 747 l 642 747 l 454 381 l 842 381 m 853 1056 l 556 1175 l 392 1050 l 363 1078 l 531 1242 l 694 1278 l 853 1086 l 853 1056 z "},"Ã":{"ha":1306,"x_min":29,"x_max":1260,"o":"m 1260 136 l 1150 -11 l 1079 -11 q 1044 2 1061 -11 q 1018 33 1026 15 l 849 356 l 444 356 l 332 136 q 480 121 422 136 q 554 89 538 106 l 439 -11 q 372 20 424 7 q 283 33 321 33 q 122 24 175 33 q 29 -11 69 14 l 139 94 q 215 122 164 108 q 300 136 267 136 l 542 594 q 500 664 542 625 q 425 694 468 694 q 367 682 389 694 q 335 653 353 675 l 306 653 q 376 715 336 689 q 513 758 442 758 q 576 740 554 758 q 600 706 589 729 l 628 769 q 617 822 622 803 q 486 939 579 939 q 386 901 432 939 q 335 844 367 886 l 310 844 q 432 951 356 911 q 600 992 508 992 q 663 984 636 992 q 713 947 689 976 l 1150 136 l 1260 136 m 842 381 l 651 747 l 642 747 l 454 381 l 842 381 m 883 1208 q 799 1121 813 1132 q 681 1078 744 1078 q 569 1125 674 1078 q 483 1147 521 1147 q 440 1121 468 1147 q 390 1069 433 1114 l 354 1100 q 465 1189 424 1169 q 558 1208 507 1208 q 678 1176 589 1208 q 754 1161 719 1161 q 783 1171 768 1161 q 844 1208 835 1206 l 883 1208 z "},"Ä":{"ha":1306,"x_min":29,"x_max":1260,"o":"m 1260 136 l 1150 -11 l 1079 -11 q 1044 2 1061 -11 q 1018 33 1026 15 l 849 356 l 444 356 l 332 136 q 480 121 422 136 q 554 89 538 106 l 439 -11 q 372 20 424 7 q 283 33 321 33 q 122 24 175 33 q 29 -11 69 14 l 139 94 q 215 122 164 108 q 300 136 267 136 l 542 594 q 500 664 542 625 q 425 694 468 694 q 367 682 389 694 q 335 653 353 675 l 306 653 q 376 715 336 689 q 513 758 442 758 q 576 740 554 758 q 600 706 589 729 l 628 769 q 617 822 622 803 q 486 939 579 939 q 386 901 432 939 q 335 844 367 886 l 310 844 q 432 951 356 911 q 600 992 508 992 q 663 984 636 992 q 713 947 689 976 l 1150 136 l 1260 136 m 842 381 l 651 747 l 642 747 l 454 381 l 842 381 m 881 1160 l 729 1049 l 594 1165 l 697 1243 l 803 1154 l 851 1193 l 881 1160 m 556 1126 l 453 1049 l 349 1138 l 294 1096 l 268 1126 l 419 1243 l 556 1126 z "},"Å":{"ha":1306,"x_min":29,"x_max":1260,"o":"m 1260 136 l 1150 -11 l 1079 -11 q 1044 2 1061 -11 q 1018 33 1026 15 l 849 356 l 444 356 l 332 136 q 480 121 422 136 q 554 89 538 106 l 439 -11 q 372 20 424 7 q 283 33 321 33 q 122 24 175 33 q 29 -11 69 14 l 139 94 q 215 122 164 108 q 300 136 267 136 l 542 594 q 500 664 542 625 q 425 694 468 694 q 367 682 389 694 q 335 653 353 675 l 306 653 q 376 715 336 689 q 513 758 442 758 q 576 740 554 758 q 600 706 589 729 l 628 769 q 617 822 622 803 q 486 939 579 939 q 386 901 432 939 q 335 844 367 886 l 310 844 q 432 951 356 911 q 600 992 508 992 q 663 984 636 992 q 713 947 689 976 l 1150 136 l 1260 136 m 842 381 l 651 747 l 642 747 l 454 381 l 842 381 m 718 1174 q 681 1095 718 1128 q 589 1063 644 1063 q 496 1094 535 1063 q 457 1174 457 1126 q 496 1250 457 1218 q 589 1282 535 1282 q 681 1251 644 1282 q 718 1174 718 1219 m 686 1171 q 658 1231 686 1207 q 586 1254 631 1254 q 521 1231 549 1254 q 493 1174 493 1207 q 521 1113 493 1138 q 589 1088 549 1088 q 658 1113 631 1088 q 686 1171 686 1138 z "},"Æ":{"ha":1621,"x_min":13,"x_max":1579,"o":"m 1172 1008 l 1076 908 l 925 908 q 877 944 906 928 q 838 961 849 961 l 738 911 l 832 1011 l 993 1011 q 1037 985 1014 997 q 1067 972 1060 972 q 1112 982 1083 972 q 1172 1008 1140 992 m 1579 108 l 1469 3 q 1396 34 1443 21 q 1311 47 1349 47 l 896 47 q 799 37 850 47 q 689 3 749 26 q 803 78 732 44 q 950 125 875 113 l 832 361 l 429 361 l 313 136 q 463 121 406 136 q 535 89 519 106 l 422 -11 q 353 20 404 7 q 268 33 303 33 q 106 24 158 33 q 13 -11 54 14 l 122 94 q 199 122 149 108 q 281 136 250 136 l 525 594 q 483 664 525 625 q 406 694 450 694 q 352 683 372 694 q 319 653 332 672 l 290 653 q 358 715 319 689 q 493 758 422 758 q 560 740 538 758 q 581 706 574 729 l 613 769 q 589 854 601 826 q 467 939 549 939 q 367 901 413 939 q 315 844 347 886 l 293 844 q 340 900 322 883 q 583 992 439 992 q 646 984 619 992 q 693 947 672 976 l 1006 369 l 1006 667 l 1128 908 l 1189 961 l 1286 1003 l 1431 1003 q 1513 991 1471 1003 q 1579 961 1554 979 l 1463 858 l 1360 900 l 1238 900 l 1138 858 l 1031 678 l 1031 328 l 1128 531 l 1189 583 l 1308 583 l 1408 542 l 1418 525 l 1306 425 l 1238 478 l 1138 478 l 1038 306 l 1131 142 l 1440 142 q 1515 133 1474 142 q 1579 108 1556 124 m 825 381 l 632 747 l 625 747 l 435 381 l 825 381 z "},"Ç":{"ha":1154,"x_min":51,"x_max":1101,"o":"m 1101 283 q 935 86 1088 175 q 576 -8 774 -8 q 178 124 311 -8 q 51 481 51 249 q 136 761 51 635 q 386 944 229 899 q 236 768 293 875 q 171 492 171 644 q 313 200 171 313 q 644 94 446 94 q 764 99 725 94 q 857 128 835 107 l 857 844 l 747 844 l 657 881 l 613 844 l 613 369 l 564 286 l 493 222 l 493 800 l 761 989 l 783 989 q 839 958 810 968 q 908 947 868 947 q 985 956 944 947 q 1047 983 1025 965 l 1003 897 l 906 853 l 879 833 l 879 136 q 1026 210 947 136 q 1101 283 1064 246 m 606 -144 q 551 -241 606 -204 q 406 -278 496 -278 l 349 -275 l 361 -233 l 390 -236 q 451 -222 428 -236 q 474 -183 474 -207 q 432 -137 474 -153 q 361 -128 404 -128 l 496 -36 q 606 -144 606 -68 z "},"È":{"ha":1131,"x_min":49,"x_max":1074,"o":"m 544 986 l 439 886 l 268 886 q 212 923 242 907 q 168 939 182 939 q 104 914 156 939 q 54 889 88 906 l 161 989 l 342 989 q 390 964 361 978 q 425 950 419 950 q 476 960 444 950 q 544 986 508 969 m 1074 94 l 964 -11 q 890 20 938 7 q 806 33 843 33 l 390 33 q 294 23 344 33 q 183 -11 243 13 q 325 76 240 40 q 503 117 418 117 l 503 653 l 622 894 l 683 947 l 779 989 l 925 989 q 1009 976 967 989 q 1074 947 1051 964 l 957 844 l 854 886 l 732 886 l 632 844 l 525 639 l 525 314 l 622 517 l 683 569 l 803 569 l 903 528 l 915 511 l 799 411 l 732 464 l 632 464 l 525 286 l 525 128 l 935 128 q 1009 119 967 128 q 1074 94 1051 110 m 329 303 q 283 228 319 264 q 210 183 247 192 l 210 464 l 110 464 l 49 411 l 49 517 l 100 569 l 210 569 l 210 611 q 251 689 214 642 q 329 758 288 736 l 329 303 m 576 1063 l 540 1063 l 232 1293 l 489 1232 l 576 1101 l 576 1063 z "},"É":{"ha":1131,"x_min":49,"x_max":1074,"o":"m 544 986 l 439 886 l 268 886 q 212 923 242 907 q 168 939 182 939 q 104 914 156 939 q 54 889 88 906 l 161 989 l 342 989 q 390 964 361 978 q 425 950 419 950 q 476 960 444 950 q 544 986 508 969 m 1074 94 l 964 -11 q 890 20 938 7 q 806 33 843 33 l 390 33 q 294 23 344 33 q 183 -11 243 13 q 325 76 240 40 q 503 117 418 117 l 503 653 l 622 894 l 683 947 l 779 989 l 925 989 q 1009 976 967 989 q 1074 947 1051 964 l 957 844 l 854 886 l 732 886 l 632 844 l 525 639 l 525 314 l 622 517 l 683 569 l 803 569 l 903 528 l 915 511 l 799 411 l 732 464 l 632 464 l 525 286 l 525 128 l 935 128 q 1009 119 967 128 q 1074 94 1051 110 m 329 303 q 283 228 319 264 q 210 183 247 192 l 210 464 l 110 464 l 49 411 l 49 517 l 100 569 l 210 569 l 210 611 q 251 689 214 642 q 329 758 288 736 l 329 303 m 874 1289 l 565 1058 l 529 1058 l 529 1097 l 617 1228 l 874 1289 z "},"Ê":{"ha":1131,"x_min":49,"x_max":1074,"o":"m 544 986 l 439 886 l 268 886 q 212 923 242 907 q 168 939 182 939 q 104 914 156 939 q 54 889 88 906 l 161 989 l 342 989 q 390 964 361 978 q 425 950 419 950 q 476 960 444 950 q 544 986 508 969 m 1074 94 l 964 -11 q 890 20 938 7 q 806 33 843 33 l 390 33 q 294 23 344 33 q 183 -11 243 13 q 325 76 240 40 q 503 117 418 117 l 503 653 l 622 894 l 683 947 l 779 989 l 925 989 q 1009 976 967 989 q 1074 947 1051 964 l 957 844 l 854 886 l 732 886 l 632 844 l 525 639 l 525 314 l 622 517 l 683 569 l 803 569 l 903 528 l 915 511 l 799 411 l 732 464 l 632 464 l 525 286 l 525 128 l 935 128 q 1009 119 967 128 q 1074 94 1051 110 m 329 303 q 283 228 319 264 q 210 183 247 192 l 210 464 l 110 464 l 49 411 l 49 517 l 100 569 l 210 569 l 210 611 q 251 689 214 642 q 329 758 288 736 l 329 303 m 844 1064 l 547 1183 l 383 1058 l 354 1086 l 522 1250 l 686 1286 l 844 1094 l 844 1064 z "},"Ë":{"ha":1131,"x_min":49,"x_max":1074,"o":"m 544 986 l 439 886 l 268 886 q 212 923 242 907 q 168 939 182 939 q 104 914 156 939 q 54 889 88 906 l 161 989 l 342 989 q 390 964 361 978 q 425 950 419 950 q 476 960 444 950 q 544 986 508 969 m 1074 94 l 964 -11 q 890 20 938 7 q 806 33 843 33 l 390 33 q 294 23 344 33 q 183 -11 243 13 q 325 76 240 40 q 503 117 418 117 l 503 653 l 622 894 l 683 947 l 779 989 l 925 989 q 1009 976 967 989 q 1074 947 1051 964 l 957 844 l 854 886 l 732 886 l 632 844 l 525 639 l 525 314 l 622 517 l 683 569 l 803 569 l 903 528 l 915 511 l 799 411 l 732 464 l 632 464 l 525 286 l 525 128 l 935 128 q 1009 119 967 128 q 1074 94 1051 110 m 329 303 q 283 228 319 264 q 210 183 247 192 l 210 464 l 110 464 l 49 411 l 49 517 l 100 569 l 210 569 l 210 611 q 251 689 214 642 q 329 758 288 736 l 329 303 m 914 1172 l 763 1061 l 628 1178 l 731 1256 l 836 1167 l 885 1206 l 914 1172 m 589 1139 l 486 1061 l 382 1150 l 328 1108 l 301 1139 l 453 1256 l 589 1139 z "},"Ì":{"ha":947,"x_min":26,"x_max":908,"o":"m 786 986 l 681 886 l 510 886 q 453 923 483 907 q 410 939 424 939 q 346 914 397 939 q 296 889 329 906 l 403 989 l 583 989 q 632 964 603 978 q 667 950 661 950 q 718 960 686 950 q 786 986 750 969 m 908 875 l 860 803 l 860 222 q 761 76 860 164 q 593 -11 663 -11 l 400 -11 l 313 33 l 129 33 l 26 -6 q 128 88 60 40 q 229 136 197 136 l 361 136 l 571 42 l 667 42 l 742 136 l 742 672 l 789 800 l 908 894 l 908 875 m 571 303 q 524 228 561 264 q 447 183 486 192 l 447 464 l 351 464 l 290 411 l 290 517 l 342 569 l 447 569 l 447 611 q 490 686 456 642 q 571 758 531 738 l 571 303 m 701 1067 l 665 1067 l 357 1297 l 614 1236 l 701 1106 l 701 1067 z "},"Í":{"ha":947,"x_min":26,"x_max":1032,"o":"m 786 986 l 681 886 l 510 886 q 453 923 483 907 q 410 939 424 939 q 346 914 397 939 q 296 889 329 906 l 403 989 l 583 989 q 632 964 603 978 q 667 950 661 950 q 718 960 686 950 q 786 986 750 969 m 908 875 l 860 803 l 860 222 q 761 76 860 164 q 593 -11 663 -11 l 400 -11 l 313 33 l 129 33 l 26 -6 q 128 88 60 40 q 229 136 197 136 l 361 136 l 571 42 l 667 42 l 742 136 l 742 672 l 789 800 l 908 894 l 908 875 m 571 303 q 524 228 561 264 q 447 183 486 192 l 447 464 l 351 464 l 290 411 l 290 517 l 342 569 l 447 569 l 447 611 q 490 686 456 642 q 571 758 531 738 l 571 303 m 1032 1297 l 724 1067 l 688 1067 l 688 1106 l 775 1236 l 1032 1297 z "},"Î":{"ha":947,"x_min":26,"x_max":908,"o":"m 786 986 l 681 886 l 510 886 q 453 923 483 907 q 410 939 424 939 q 346 914 397 939 q 296 889 329 906 l 403 989 l 583 989 q 632 964 603 978 q 667 950 661 950 q 718 960 686 950 q 786 986 750 969 m 908 875 l 860 803 l 860 222 q 761 76 860 164 q 593 -11 663 -11 l 400 -11 l 313 33 l 129 33 l 26 -6 q 128 88 60 40 q 229 136 197 136 l 361 136 l 571 42 l 667 42 l 742 136 l 742 672 l 789 800 l 908 894 l 908 875 m 571 303 q 524 228 561 264 q 447 183 486 192 l 447 464 l 351 464 l 290 411 l 290 517 l 342 569 l 447 569 l 447 611 q 490 686 456 642 q 571 758 531 738 l 571 303 m 882 1072 l 585 1192 l 421 1067 l 392 1094 l 560 1258 l 724 1294 l 882 1103 l 882 1072 z "},"Ï":{"ha":947,"x_min":26,"x_max":931,"o":"m 786 986 l 681 886 l 510 886 q 453 923 483 907 q 410 939 424 939 q 346 914 397 939 q 296 889 329 906 l 403 989 l 583 989 q 632 964 603 978 q 667 950 661 950 q 718 960 686 950 q 786 986 750 969 m 908 875 l 860 803 l 860 222 q 761 76 860 164 q 593 -11 663 -11 l 400 -11 l 313 33 l 129 33 l 26 -6 q 128 88 60 40 q 229 136 197 136 l 361 136 l 571 42 l 667 42 l 742 136 l 742 672 l 789 800 l 908 894 l 908 875 m 571 303 q 524 228 561 264 q 447 183 486 192 l 447 464 l 351 464 l 290 411 l 290 517 l 342 569 l 447 569 l 447 611 q 490 686 456 642 q 571 758 531 738 l 571 303 m 931 1181 l 779 1069 l 644 1186 l 747 1264 l 853 1175 l 901 1214 l 931 1181 m 606 1147 l 503 1069 l 399 1158 l 344 1117 l 318 1147 l 469 1264 l 606 1147 z "},"Ð":{"ha":1099,"x_min":54,"x_max":1015,"o":"m 1015 128 l 893 128 l 681 -11 l 576 33 l 271 33 q 174 19 238 33 q 64 -11 110 6 q 214 83 99 29 q 383 136 329 136 l 551 136 l 551 464 l 406 464 l 406 353 q 356 276 406 329 q 283 222 307 222 l 283 464 l 54 464 l 54 569 l 283 569 l 286 608 q 334 697 286 638 q 406 756 382 756 l 406 569 l 551 569 l 551 886 l 235 886 q 138 928 211 886 q 64 989 64 971 l 860 992 q 964 946 913 992 q 1015 853 1015 900 l 1015 128 m 893 653 l 893 853 l 842 883 l 576 883 l 576 653 l 683 611 l 783 611 l 893 653 m 893 383 l 893 639 l 796 600 l 671 600 l 576 639 l 576 569 l 671 569 l 671 464 l 576 464 l 576 383 l 674 425 l 808 425 l 893 383 m 893 150 l 893 369 l 806 411 l 674 411 l 576 369 l 576 139 l 625 139 l 769 94 l 803 94 l 893 150 z "},"Ñ":{"ha":1189,"x_min":36,"x_max":1253,"o":"m 1253 969 l 1206 886 l 1108 844 l 1047 844 l 1047 -19 q 913 63 997 -19 q 779 214 847 125 q 718 297 749 256 l 683 328 l 583 367 l 376 367 l 281 319 l 281 136 l 447 136 l 547 89 l 432 -11 l 367 33 l 206 33 q 124 22 169 33 q 36 -11 78 10 l 144 94 l 232 128 l 254 147 l 254 464 l 154 464 l 97 411 l 97 517 l 144 569 l 254 569 l 254 939 l 154 939 l 42 847 q 154 960 110 932 q 242 989 199 989 l 390 989 q 471 952 418 989 q 547 875 524 915 l 635 722 l 815 611 l 915 611 l 1025 664 l 1025 844 l 964 844 l 864 889 l 976 989 l 999 989 l 1083 947 l 1196 947 l 1253 989 l 1253 969 m 1021 108 l 1021 650 l 915 600 l 815 600 l 644 703 l 976 139 l 1021 108 m 689 342 l 461 778 q 385 881 425 839 q 281 939 328 939 l 281 336 l 376 381 l 583 381 l 689 342 m 904 1200 q 819 1113 833 1124 q 701 1069 765 1069 q 590 1117 694 1069 q 504 1139 542 1139 q 461 1113 489 1139 q 411 1061 454 1106 l 375 1092 q 486 1181 444 1161 q 579 1200 528 1200 q 699 1168 610 1200 q 775 1153 740 1153 q 804 1163 789 1153 q 865 1200 856 1197 l 904 1200 z "},"Ò":{"ha":1251,"x_min":71,"x_max":1182,"o":"m 1182 400 q 997 124 1182 267 q 693 -11 822 -11 l 476 -11 q 206 117 319 -11 q 71 536 71 268 q 185 856 71 715 q 413 989 293 989 q 274 842 349 989 q 193 519 193 685 q 331 111 193 251 q 561 6 433 6 l 683 6 l 767 22 l 767 917 l 764 928 l 571 836 l 571 303 q 535 232 558 260 q 451 181 506 199 l 451 800 l 842 989 q 1072 846 954 989 q 1182 619 1182 713 l 1182 400 m 1060 653 q 963 823 1060 721 q 793 925 867 925 l 793 653 l 899 611 l 957 611 l 1060 653 m 1060 381 l 1060 642 l 964 600 l 889 600 l 793 639 l 793 381 l 889 422 l 976 422 l 1060 381 m 1060 367 l 969 411 l 889 411 l 793 369 l 793 31 q 959 153 858 31 q 1060 367 1060 275 m 660 1067 l 624 1067 l 315 1297 l 572 1236 l 660 1106 l 660 1067 z "},"Ó":{"ha":1251,"x_min":71,"x_max":1182,"o":"m 1182 400 q 997 124 1182 267 q 693 -11 822 -11 l 476 -11 q 206 117 319 -11 q 71 536 71 268 q 185 856 71 715 q 413 989 293 989 q 274 842 349 989 q 193 519 193 685 q 331 111 193 251 q 561 6 433 6 l 683 6 l 767 22 l 767 917 l 764 928 l 571 836 l 571 303 q 535 232 558 260 q 451 181 506 199 l 451 800 l 842 989 q 1072 846 954 989 q 1182 619 1182 713 l 1182 400 m 1060 653 q 963 823 1060 721 q 793 925 867 925 l 793 653 l 899 611 l 957 611 l 1060 653 m 1060 381 l 1060 642 l 964 600 l 889 600 l 793 639 l 793 381 l 889 422 l 976 422 l 1060 381 m 1060 367 l 969 411 l 889 411 l 793 369 l 793 31 q 959 153 858 31 q 1060 367 1060 275 m 994 1289 l 686 1058 l 650 1058 l 650 1097 l 738 1228 l 994 1289 z "},"Ô":{"ha":1251,"x_min":71,"x_max":1182,"o":"m 1182 400 q 997 124 1182 267 q 693 -11 822 -11 l 476 -11 q 206 117 319 -11 q 71 536 71 268 q 185 856 71 715 q 413 989 293 989 q 274 842 349 989 q 193 519 193 685 q 331 111 193 251 q 561 6 433 6 l 683 6 l 767 22 l 767 917 l 764 928 l 571 836 l 571 303 q 535 232 558 260 q 451 181 506 199 l 451 800 l 842 989 q 1072 846 954 989 q 1182 619 1182 713 l 1182 400 m 1060 653 q 963 823 1060 721 q 793 925 867 925 l 793 653 l 899 611 l 957 611 l 1060 653 m 1060 381 l 1060 642 l 964 600 l 889 600 l 793 639 l 793 381 l 889 422 l 976 422 l 1060 381 m 1060 367 l 969 411 l 889 411 l 793 369 l 793 31 q 959 153 858 31 q 1060 367 1060 275 m 857 1056 l 560 1175 l 396 1050 l 367 1078 l 535 1242 l 699 1278 l 857 1086 l 857 1056 z "},"Õ":{"ha":1251,"x_min":71,"x_max":1182,"o":"m 1182 400 q 997 124 1182 267 q 693 -11 822 -11 l 476 -11 q 206 117 319 -11 q 71 536 71 268 q 185 856 71 715 q 413 989 293 989 q 274 842 349 989 q 193 519 193 685 q 331 111 193 251 q 561 6 433 6 l 683 6 l 767 22 l 767 917 l 764 928 l 571 836 l 571 303 q 535 232 558 260 q 451 181 506 199 l 451 800 l 842 989 q 1072 846 954 989 q 1182 619 1182 713 l 1182 400 m 1060 653 q 963 823 1060 721 q 793 925 867 925 l 793 653 l 899 611 l 957 611 l 1060 653 m 1060 381 l 1060 642 l 964 600 l 889 600 l 793 639 l 793 381 l 889 422 l 976 422 l 1060 381 m 1060 367 l 969 411 l 889 411 l 793 369 l 793 31 q 959 153 858 31 q 1060 367 1060 275 m 896 1192 q 811 1104 825 1115 q 693 1061 757 1061 q 582 1108 686 1061 q 496 1131 533 1131 q 453 1104 481 1131 q 403 1053 446 1097 l 367 1083 q 478 1172 436 1153 q 571 1192 519 1192 q 690 1160 601 1192 q 767 1144 732 1144 q 796 1154 781 1144 q 857 1192 847 1189 l 896 1192 z "},"Ö":{"ha":1251,"x_min":71,"x_max":1182,"o":"m 1182 400 q 997 124 1182 267 q 693 -11 822 -11 l 476 -11 q 206 117 319 -11 q 71 536 71 268 q 185 856 71 715 q 413 989 293 989 q 274 842 349 989 q 193 519 193 685 q 331 111 193 251 q 561 6 433 6 l 683 6 l 767 22 l 767 917 l 764 928 l 571 836 l 571 303 q 535 232 558 260 q 451 181 506 199 l 451 800 l 842 989 q 1072 846 954 989 q 1182 619 1182 713 l 1182 400 m 1060 653 q 963 823 1060 721 q 793 925 867 925 l 793 653 l 899 611 l 957 611 l 1060 653 m 1060 381 l 1060 642 l 964 600 l 889 600 l 793 639 l 793 381 l 889 422 l 976 422 l 1060 381 m 1060 367 l 969 411 l 889 411 l 793 369 l 793 31 q 959 153 858 31 q 1060 367 1060 275 m 889 1156 l 738 1044 l 603 1161 l 706 1239 l 811 1150 l 860 1189 l 889 1156 m 564 1122 l 461 1044 l 357 1133 l 303 1092 l 276 1122 l 428 1239 l 564 1122 z "},"×":{"ha":899,"x_min":61,"x_max":838,"o":"m 838 67 l 757 0 l 447 267 l 135 0 l 61 67 l 371 336 l 61 606 l 139 672 l 447 406 l 757 672 l 838 606 l 525 336 l 838 67 z "},"Ø":{"ha":1228,"x_min":39,"x_max":1167,"o":"m 1167 400 q 982 124 1167 265 q 676 -11 807 -11 l 461 -11 q 317 20 385 -11 q 188 117 249 51 l 61 0 l 39 11 l 171 136 q 85 303 115 204 q 54 536 54 403 q 168 856 54 715 q 396 989 276 989 q 258 842 333 989 q 178 519 178 683 q 196 342 178 418 q 249 206 214 265 l 435 375 l 435 800 l 825 989 q 913 965 868 989 q 1003 897 957 940 l 1101 992 l 1144 992 l 1021 875 q 1124 740 1082 815 q 1167 619 1167 665 l 1167 400 m 935 839 q 853 901 896 876 q 776 925 810 925 l 776 692 l 935 839 m 1044 653 q 1019 726 1044 683 q 950 814 994 768 l 776 653 l 886 611 l 940 611 l 1044 653 m 1044 381 l 1044 642 l 947 600 l 874 600 l 776 639 l 776 381 l 874 422 l 960 422 l 1044 381 m 751 667 l 751 917 l 747 928 l 554 836 l 554 483 l 751 667 m 1044 367 l 954 411 l 874 411 l 776 369 l 776 31 q 944 152 843 31 q 1044 367 1044 274 m 751 22 l 751 631 l 554 450 l 554 303 q 517 230 544 261 q 435 181 489 199 l 435 342 l 258 181 q 401 43 313 90 q 544 4 474 4 l 667 4 l 751 22 z "},"Ù":{"ha":1194,"x_min":49,"x_max":1147,"o":"m 535 986 q 419 950 463 950 q 388 960 408 950 q 335 989 367 969 l 151 989 l 49 889 q 97 914 81 906 q 158 939 147 939 q 201 925 175 939 q 261 886 226 911 l 432 886 l 535 986 m 1147 94 l 1031 -11 l 922 86 q 811 29 896 58 q 571 -11 694 -11 q 183 143 307 -11 q 83 478 83 268 q 119 656 83 564 q 210 800 156 747 q 173 678 188 747 q 158 544 158 610 q 271 235 158 364 q 603 92 396 92 l 674 89 q 732 94 718 89 l 732 833 l 596 803 l 596 369 q 554 283 578 317 q 481 225 524 240 l 476 717 l 525 800 l 732 853 l 969 989 l 1147 886 l 1038 833 l 1038 181 l 1096 94 l 1147 94 m 915 614 l 915 853 l 842 883 l 757 842 l 757 614 l 915 614 m 915 422 l 915 600 l 757 600 l 757 422 l 915 422 m 915 139 l 915 408 l 757 408 l 757 94 l 915 139 m 674 1067 l 638 1067 l 329 1297 l 586 1236 l 674 1106 l 674 1067 z "},"Ú":{"ha":1194,"x_min":49,"x_max":1147,"o":"m 535 986 q 419 950 463 950 q 388 960 408 950 q 335 989 367 969 l 151 989 l 49 889 q 97 914 81 906 q 158 939 147 939 q 201 925 175 939 q 261 886 226 911 l 432 886 l 535 986 m 1147 94 l 1031 -11 l 922 86 q 811 29 896 58 q 571 -11 694 -11 q 183 143 307 -11 q 83 478 83 268 q 119 656 83 564 q 210 800 156 747 q 173 678 188 747 q 158 544 158 610 q 271 235 158 364 q 603 92 396 92 l 674 89 q 732 94 718 89 l 732 833 l 596 803 l 596 369 q 554 283 578 317 q 481 225 524 240 l 476 717 l 525 800 l 732 853 l 969 989 l 1147 886 l 1038 833 l 1038 181 l 1096 94 l 1147 94 m 915 614 l 915 853 l 842 883 l 757 842 l 757 614 l 915 614 m 915 422 l 915 600 l 757 600 l 757 422 l 915 422 m 915 139 l 915 408 l 757 408 l 757 94 l 915 139 m 978 1293 l 669 1063 l 633 1063 l 633 1101 l 721 1232 l 978 1293 z "},"Û":{"ha":1194,"x_min":49,"x_max":1147,"o":"m 535 986 q 419 950 463 950 q 388 960 408 950 q 335 989 367 969 l 151 989 l 49 889 q 97 914 81 906 q 158 939 147 939 q 201 925 175 939 q 261 886 226 911 l 432 886 l 535 986 m 1147 94 l 1031 -11 l 922 86 q 811 29 896 58 q 571 -11 694 -11 q 183 143 307 -11 q 83 478 83 268 q 119 656 83 564 q 210 800 156 747 q 173 678 188 747 q 158 544 158 610 q 271 235 158 364 q 603 92 396 92 l 674 89 q 732 94 718 89 l 732 833 l 596 803 l 596 369 q 554 283 578 317 q 481 225 524 240 l 476 717 l 525 800 l 732 853 l 969 989 l 1147 886 l 1038 833 l 1038 181 l 1096 94 l 1147 94 m 915 614 l 915 853 l 842 883 l 757 842 l 757 614 l 915 614 m 915 422 l 915 600 l 757 600 l 757 422 l 915 422 m 915 139 l 915 408 l 757 408 l 757 94 l 915 139 m 865 1047 l 568 1167 l 404 1042 l 375 1069 l 543 1233 l 707 1269 l 865 1078 l 865 1047 z "},"Ü":{"ha":1194,"x_min":49,"x_max":1147,"o":"m 535 986 q 419 950 463 950 q 388 960 408 950 q 335 989 367 969 l 151 989 l 49 889 q 97 914 81 906 q 158 939 147 939 q 201 925 175 939 q 261 886 226 911 l 432 886 l 535 986 m 1147 94 l 1031 -11 l 922 86 q 811 29 896 58 q 571 -11 694 -11 q 183 143 307 -11 q 83 478 83 268 q 119 656 83 564 q 210 800 156 747 q 173 678 188 747 q 158 544 158 610 q 271 235 158 364 q 603 92 396 92 l 674 89 q 732 94 718 89 l 732 833 l 596 803 l 596 369 q 554 283 578 317 q 481 225 524 240 l 476 717 l 525 800 l 732 853 l 969 989 l 1147 886 l 1038 833 l 1038 181 l 1096 94 l 1147 94 m 915 614 l 915 853 l 842 883 l 757 842 l 757 614 l 915 614 m 915 422 l 915 600 l 757 600 l 757 422 l 915 422 m 915 139 l 915 408 l 757 408 l 757 94 l 915 139 m 914 1164 l 763 1053 l 628 1169 l 731 1247 l 836 1158 l 885 1197 l 914 1164 m 589 1131 l 486 1053 l 382 1142 l 328 1100 l 301 1131 l 453 1247 l 589 1131 z "},"Ý":{"ha":1121,"x_min":42,"x_max":1106,"o":"m 1106 886 l 993 833 l 993 -147 l 944 -231 l 818 -336 l 496 -242 l 215 -242 l 215 -231 l 410 -189 l 786 -189 l 922 -231 l 983 -136 l 983 -11 l 886 128 l 738 94 l 551 -11 l 278 86 l 103 86 l 103 94 l 117 94 l 215 147 l 215 464 l 117 464 l 42 411 l 42 517 l 103 569 l 215 569 l 215 844 q 178 918 215 871 q 103 989 140 965 q 252 920 169 989 q 335 800 335 851 l 335 136 l 544 136 l 544 800 l 813 894 l 928 989 l 1106 886 m 869 653 l 869 853 l 822 883 l 557 789 l 557 653 l 664 611 l 764 611 l 869 653 m 869 383 l 869 642 l 776 600 l 651 600 l 557 642 l 557 381 l 651 422 l 786 422 l 869 383 m 869 139 l 869 369 l 774 411 l 651 411 l 557 369 l 557 139 l 738 108 l 869 139 m 865 1272 l 557 1042 l 521 1042 l 521 1081 l 608 1211 l 865 1272 z "},"Þ":{"ha":828,"x_min":22,"x_max":803,"o":"m 803 569 l 693 506 l 693 86 l 571 86 l 310 -11 l 261 22 l 254 11 l 254 -136 l 315 -239 l 132 -336 l 132 86 l 22 86 l 22 94 l 36 94 l 132 147 l 132 903 l 90 992 l 119 986 l 193 953 l 254 903 l 254 528 l 522 611 l 576 664 l 742 569 l 803 569 m 571 94 l 571 517 l 471 558 l 410 558 l 254 506 l 254 139 l 419 42 l 571 94 z "},"ß":{"ha":703,"x_min":39,"x_max":647,"o":"m 647 883 l 635 883 l 551 842 l 415 842 l 313 936 l 271 883 l 271 517 q 361 575 317 533 q 419 550 400 556 q 461 544 438 544 l 515 544 q 551 552 532 544 q 586 575 569 560 l 632 556 l 425 311 l 586 311 l 586 89 q 619 81 607 85 q 644 72 632 76 l 625 42 q 599 53 613 49 q 571 58 586 58 q 506 40 536 58 q 476 0 476 21 q 541 -88 476 -35 q 606 -181 606 -142 q 574 -259 606 -224 q 447 -356 543 -294 l 425 -333 q 500 -242 500 -276 q 456 -156 500 -214 q 413 -58 413 -99 q 424 -3 413 -26 q 464 50 435 21 l 464 253 l 354 253 l 535 478 q 477 453 510 460 q 403 447 444 447 q 338 459 367 447 q 271 497 310 471 l 271 144 l 367 92 l 429 92 l 264 -14 l 88 83 l 39 83 l 39 92 l 51 92 l 149 144 l 149 892 l 406 986 l 429 986 l 600 892 l 647 892 l 647 883 z "},"à":{"ha":738,"x_min":15,"x_max":713,"o":"m 713 94 l 596 -11 l 481 86 l 481 128 l 335 86 l 222 -11 q 97 44 153 -11 q 42 167 42 100 q 48 249 42 215 q 81 306 54 283 l 200 411 l 42 550 l 42 569 l 158 664 l 322 569 l 383 569 l 547 664 l 664 564 l 603 506 l 603 136 l 664 94 l 713 94 m 481 144 l 481 506 l 371 547 l 335 547 l 225 506 l 129 506 l 335 322 l 322 317 l 219 400 l 117 311 q 107 281 107 303 q 116 224 107 253 q 144 161 125 194 q 217 114 169 126 q 306 106 249 106 l 344 106 l 481 144 m 360 733 l 324 733 l 15 964 l 272 903 l 360 772 l 360 733 z "},"á":{"ha":738,"x_min":42,"x_max":713,"o":"m 713 94 l 596 -11 l 481 86 l 481 128 l 335 86 l 222 -11 q 97 44 153 -11 q 42 167 42 100 q 48 249 42 215 q 81 306 54 283 l 200 411 l 42 550 l 42 569 l 158 664 l 322 569 l 383 569 l 547 664 l 664 564 l 603 506 l 603 136 l 664 94 l 713 94 m 481 144 l 481 506 l 371 547 l 335 547 l 225 506 l 129 506 l 335 322 l 322 317 l 219 400 l 117 311 q 107 281 107 303 q 116 224 107 253 q 144 161 125 194 q 217 114 169 126 q 306 106 249 106 l 344 106 l 481 144 m 669 956 l 361 725 l 325 725 l 325 764 l 413 894 l 669 956 z "},"â":{"ha":738,"x_min":42,"x_max":713,"o":"m 713 94 l 596 -11 l 481 86 l 481 128 l 335 86 l 222 -11 q 97 44 153 -11 q 42 167 42 100 q 48 249 42 215 q 81 306 54 283 l 200 411 l 42 550 l 42 569 l 158 664 l 322 569 l 383 569 l 547 664 l 664 564 l 603 506 l 603 136 l 664 94 l 713 94 m 481 144 l 481 506 l 371 547 l 335 547 l 225 506 l 129 506 l 335 322 l 322 317 l 219 400 l 117 311 q 107 281 107 303 q 116 224 107 253 q 144 161 125 194 q 217 114 169 126 q 306 106 249 106 l 344 106 l 481 144 m 599 731 l 301 850 l 138 725 l 108 753 l 276 917 l 440 953 l 599 761 l 599 731 z "},"ã":{"ha":738,"x_min":42,"x_max":713,"o":"m 713 94 l 596 -11 l 481 86 l 481 128 l 335 86 l 222 -11 q 97 44 153 -11 q 42 167 42 100 q 48 249 42 215 q 81 306 54 283 l 200 411 l 42 550 l 42 569 l 158 664 l 322 569 l 383 569 l 547 664 l 664 564 l 603 506 l 603 136 l 664 94 l 713 94 m 481 144 l 481 506 l 371 547 l 335 547 l 225 506 l 129 506 l 335 322 l 322 317 l 219 400 l 117 311 q 107 281 107 303 q 116 224 107 253 q 144 161 125 194 q 217 114 169 126 q 306 106 249 106 l 344 106 l 481 144 m 638 892 q 553 804 567 815 q 435 761 499 761 q 324 808 428 761 q 238 831 275 831 q 194 804 222 831 q 144 753 188 797 l 108 783 q 219 872 178 853 q 313 892 261 892 q 432 860 343 892 q 508 844 474 844 q 538 854 522 844 q 599 892 589 889 l 638 892 z "},"ä":{"ha":738,"x_min":42,"x_max":713,"o":"m 713 94 l 596 -11 l 481 86 l 481 128 l 335 86 l 222 -11 q 97 44 153 -11 q 42 167 42 100 q 48 249 42 215 q 81 306 54 283 l 200 411 l 42 550 l 42 569 l 158 664 l 322 569 l 383 569 l 547 664 l 664 564 l 603 506 l 603 136 l 664 94 l 713 94 m 481 144 l 481 506 l 371 547 l 335 547 l 225 506 l 129 506 l 335 322 l 322 317 l 219 400 l 117 311 q 107 281 107 303 q 116 224 107 253 q 144 161 125 194 q 217 114 169 126 q 306 106 249 106 l 344 106 l 481 144 m 681 839 l 529 728 l 394 844 l 497 922 l 603 833 l 651 872 l 681 839 m 356 806 l 253 728 l 149 817 l 94 775 l 68 806 l 219 922 l 356 806 z "},"å":{"ha":738,"x_min":42,"x_max":713,"o":"m 713 94 l 596 -11 l 481 86 l 481 128 l 335 86 l 222 -11 q 97 44 153 -11 q 42 167 42 100 q 48 249 42 215 q 81 306 54 283 l 200 411 l 42 550 l 42 569 l 158 664 l 322 569 l 383 569 l 547 664 l 664 564 l 603 506 l 603 136 l 664 94 l 713 94 m 481 144 l 481 506 l 371 547 l 335 547 l 225 506 l 129 506 l 335 322 l 322 317 l 219 400 l 117 311 q 107 281 107 303 q 116 224 107 253 q 144 161 125 194 q 217 114 169 126 q 306 106 249 106 l 344 106 l 481 144 m 472 844 q 435 766 472 799 q 343 733 399 733 q 250 765 289 733 q 211 844 211 797 q 250 921 211 889 q 343 953 289 953 q 435 922 399 953 q 472 844 472 890 m 440 842 q 413 901 440 878 q 340 925 385 925 q 275 901 303 925 q 247 844 247 878 q 275 783 247 808 q 343 758 303 758 q 413 783 385 758 q 440 842 440 808 z "},"æ":{"ha":1011,"x_min":42,"x_max":979,"o":"m 979 472 l 606 289 l 606 150 l 761 97 l 600 -8 l 419 81 l 335 81 l 225 -11 q 99 44 156 -11 q 42 167 42 100 q 49 247 42 210 q 81 306 57 283 l 203 411 l 44 550 l 44 569 l 161 664 l 325 569 l 386 569 l 551 664 l 613 608 l 818 667 l 979 472 m 854 422 l 713 603 l 606 558 l 606 300 l 854 422 m 483 150 l 483 506 l 374 547 l 339 547 l 229 506 l 132 506 l 339 322 l 325 317 l 222 400 l 119 317 q 110 281 110 308 q 118 224 110 253 q 149 161 126 196 q 239 104 178 119 q 349 94 279 94 l 483 150 z "},"ç":{"ha":742,"x_min":44,"x_max":713,"o":"m 713 569 l 606 506 l 483 506 l 386 586 l 278 550 l 278 147 l 374 94 l 422 94 l 581 158 l 581 128 l 271 -11 l 93 86 l 44 86 l 44 94 l 58 94 l 154 147 l 154 569 l 490 664 l 642 569 l 713 569 m 374 -164 q 319 -260 374 -224 q 174 -297 264 -297 l 117 -294 l 129 -253 l 158 -256 q 219 -242 196 -256 q 242 -203 242 -228 q 200 -157 242 -172 q 129 -147 172 -147 l 264 -56 q 374 -164 374 -87 z "},"è":{"ha":676,"x_min":36,"x_max":644,"o":"m 644 469 l 268 286 l 268 147 l 425 94 l 264 -11 l 88 86 l 36 86 l 36 94 l 49 94 l 149 147 l 149 569 l 481 664 l 644 469 m 513 425 l 376 600 l 268 558 l 268 306 l 513 425 m 271 831 l 301 831 q 276 786 299 804 q 221 768 253 768 q 161 793 183 768 q 139 860 139 818 q 161 933 139 904 q 226 961 183 961 q 284 933 264 961 q 304 854 304 904 l 172 854 q 225 794 172 794 q 258 806 244 794 q 271 831 271 818 m 172 879 l 272 879 q 261 919 272 904 q 222 933 250 933 q 188 917 203 933 q 172 879 172 900 m 499 904 l 469 904 q 426 935 469 935 q 400 928 410 935 q 390 908 390 921 q 424 885 390 893 l 454 876 q 506 829 506 863 q 485 785 506 801 q 433 768 464 768 q 368 792 386 768 q 356 832 356 807 l 385 832 q 399 803 386 813 q 433 794 413 794 q 475 824 475 794 q 439 850 475 840 l 403 858 q 361 903 361 869 q 381 947 361 932 q 429 961 400 961 q 480 945 461 961 q 499 904 499 929 m 636 931 l 606 931 l 606 774 l 575 774 l 575 931 l 550 931 l 550 956 l 575 956 l 575 986 q 622 1026 575 1026 l 636 1026 l 636 999 l 624 999 q 606 978 606 999 l 606 956 l 636 956 l 636 931 m 397 729 l 361 729 l 53 960 l 310 899 l 397 768 l 397 729 z "},"é":{"ha":676,"x_min":36,"x_max":644,"o":"m 644 469 l 268 286 l 268 147 l 425 94 l 264 -11 l 88 86 l 36 86 l 36 94 l 49 94 l 149 147 l 149 569 l 481 664 l 644 469 m 513 425 l 376 600 l 268 558 l 268 306 l 513 425 m 271 831 l 301 831 q 276 786 299 804 q 221 768 253 768 q 161 793 183 768 q 139 860 139 818 q 161 933 139 904 q 226 961 183 961 q 284 933 264 961 q 304 854 304 904 l 172 854 q 225 794 172 794 q 258 806 244 794 q 271 831 271 818 m 172 879 l 272 879 q 261 919 272 904 q 222 933 250 933 q 188 917 203 933 q 172 879 172 900 m 499 904 l 469 904 q 426 935 469 935 q 400 928 410 935 q 390 908 390 921 q 424 885 390 893 l 454 876 q 506 829 506 863 q 485 785 506 801 q 433 768 464 768 q 368 792 386 768 q 356 832 356 807 l 385 832 q 399 803 386 813 q 433 794 413 794 q 475 824 475 794 q 439 850 475 840 l 403 858 q 361 903 361 869 q 381 947 361 932 q 429 961 400 961 q 480 945 461 961 q 499 904 499 929 m 636 931 l 606 931 l 606 774 l 575 774 l 575 931 l 550 931 l 550 956 l 575 956 l 575 986 q 622 1026 575 1026 l 636 1026 l 636 999 l 624 999 q 606 978 606 999 l 606 956 l 636 956 l 636 931 m 640 956 l 332 725 l 296 725 l 296 764 l 383 894 l 640 956 z "},"ê":{"ha":676,"x_min":36,"x_max":644,"o":"m 644 469 l 268 286 l 268 147 l 425 94 l 264 -11 l 88 86 l 36 86 l 36 94 l 49 94 l 149 147 l 149 569 l 481 664 l 644 469 m 513 425 l 376 600 l 268 558 l 268 306 l 513 425 m 271 831 l 301 831 q 276 786 299 804 q 221 768 253 768 q 161 793 183 768 q 139 860 139 818 q 161 933 139 904 q 226 961 183 961 q 284 933 264 961 q 304 854 304 904 l 172 854 q 225 794 172 794 q 258 806 244 794 q 271 831 271 818 m 172 879 l 272 879 q 261 919 272 904 q 222 933 250 933 q 188 917 203 933 q 172 879 172 900 m 499 904 l 469 904 q 426 935 469 935 q 400 928 410 935 q 390 908 390 921 q 424 885 390 893 l 454 876 q 506 829 506 863 q 485 785 506 801 q 433 768 464 768 q 368 792 386 768 q 356 832 356 807 l 385 832 q 399 803 386 813 q 433 794 413 794 q 475 824 475 794 q 439 850 475 840 l 403 858 q 361 903 361 869 q 381 947 361 932 q 429 961 400 961 q 480 945 461 961 q 499 904 499 929 m 636 931 l 606 931 l 606 774 l 575 774 l 575 931 l 550 931 l 550 956 l 575 956 l 575 986 q 622 1026 575 1026 l 636 1026 l 636 999 l 624 999 q 606 978 606 999 l 606 956 l 636 956 l 636 931 m 599 714 l 301 833 l 138 708 l 108 736 l 276 900 l 440 936 l 599 744 l 599 714 z "},"ë":{"ha":676,"x_min":36,"x_max":656,"o":"m 644 469 l 268 286 l 268 147 l 425 94 l 264 -11 l 88 86 l 36 86 l 36 94 l 49 94 l 149 147 l 149 569 l 481 664 l 644 469 m 513 425 l 376 600 l 268 558 l 268 306 l 513 425 m 271 831 l 301 831 q 276 786 299 804 q 221 768 253 768 q 161 793 183 768 q 139 860 139 818 q 161 933 139 904 q 226 961 183 961 q 284 933 264 961 q 304 854 304 904 l 172 854 q 225 794 172 794 q 258 806 244 794 q 271 831 271 818 m 172 879 l 272 879 q 261 919 272 904 q 222 933 250 933 q 188 917 203 933 q 172 879 172 900 m 499 904 l 469 904 q 426 935 469 935 q 400 928 410 935 q 390 908 390 921 q 424 885 390 893 l 454 876 q 506 829 506 863 q 485 785 506 801 q 433 768 464 768 q 368 792 386 768 q 356 832 356 807 l 385 832 q 399 803 386 813 q 433 794 413 794 q 475 824 475 794 q 439 850 475 840 l 403 858 q 361 903 361 869 q 381 947 361 932 q 429 961 400 961 q 480 945 461 961 q 499 904 499 929 m 636 931 l 606 931 l 606 774 l 575 774 l 575 931 l 550 931 l 550 956 l 575 956 l 575 986 q 622 1026 575 1026 l 636 1026 l 636 999 l 624 999 q 606 978 606 999 l 606 956 l 636 956 l 636 931 m 656 839 l 504 728 l 369 844 l 472 922 l 578 833 l 626 872 l 656 839 m 331 806 l 228 728 l 124 817 l 69 775 l 43 806 l 194 922 l 331 806 z "},"ì":{"ha":425,"x_min":-101,"x_max":383,"o":"m 383 94 l 271 -11 l 154 86 l 154 506 l 44 569 l 222 664 l 383 564 l 274 506 l 274 136 l 335 94 l 383 94 m 243 758 l 207 758 l -101 989 l 156 928 l 243 797 l 243 758 z "},"í":{"ha":425,"x_min":44,"x_max":540,"o":"m 540 981 l 232 750 l 196 750 l 196 789 l 283 919 l 540 981 m 383 94 l 271 -11 l 154 86 l 154 506 l 44 569 l 222 664 l 383 564 l 274 506 l 274 136 l 335 94 l 383 94 z "},"î":{"ha":425,"x_min":-17,"x_max":474,"o":"m 474 706 l 176 825 l 13 700 l -17 728 l 151 892 l 315 928 l 474 736 l 474 706 m 383 94 l 271 -11 l 154 86 l 154 506 l 44 569 l 222 664 l 383 564 l 274 506 l 274 136 l 335 94 l 383 94 z "},"ï":{"ha":425,"x_min":-49,"x_max":564,"o":"m 564 864 l 413 753 l 278 869 l 381 947 l 486 858 l 535 897 l 564 864 m 239 831 l 136 753 l 32 842 l -22 800 l -49 831 l 103 947 l 239 831 m 383 94 l 271 -11 l 154 86 l 154 506 l 44 569 l 222 664 l 383 564 l 274 506 l 274 136 l 335 94 l 383 94 z "},"ð":{"ha":850,"x_min":42,"x_max":818,"o":"m 818 569 l 708 506 l 708 86 l 586 86 l 329 -11 l 151 86 l 42 86 l 42 94 l 51 94 l 151 147 l 151 575 l 268 575 l 413 622 l 313 675 l 313 767 l 197 806 l 313 806 l 696 569 l 818 569 m 586 111 l 586 517 l 442 600 l 419 600 l 274 558 l 274 139 l 425 53 l 586 111 z "},"ñ":{"ha":850,"x_min":42,"x_max":818,"o":"m 818 94 l 706 -11 l 590 86 l 590 506 l 481 558 l 429 558 l 271 497 l 271 147 l 381 89 l 268 -11 l 103 86 l 42 86 l 42 94 l 51 94 l 151 147 l 151 506 l 103 558 l 42 558 l 154 664 l 271 569 l 271 528 l 283 528 l 596 664 l 757 569 l 818 569 l 708 506 l 708 136 l 769 94 l 818 94 m 758 888 q 674 800 688 811 q 556 757 619 757 q 444 804 549 757 q 358 826 396 826 q 315 800 343 826 q 265 749 308 793 l 229 779 q 340 868 299 849 q 433 888 382 888 q 553 856 464 888 q 629 840 594 840 q 658 850 643 840 q 719 888 710 885 l 758 888 z "},"ò":{"ha":850,"x_min":42,"x_max":818,"o":"m 818 569 l 708 506 l 708 86 l 586 86 l 329 -11 l 151 86 l 42 86 l 42 94 l 51 94 l 151 147 l 151 575 l 268 575 l 547 664 l 696 569 l 818 569 m 586 111 l 586 517 l 442 600 l 419 600 l 274 558 l 274 139 l 425 53 l 586 111 m 464 733 l 428 733 l 119 964 l 376 903 l 464 772 l 464 733 z "},"ó":{"ha":850,"x_min":42,"x_max":818,"o":"m 818 569 l 708 506 l 708 86 l 586 86 l 329 -11 l 151 86 l 42 86 l 42 94 l 51 94 l 151 147 l 151 575 l 268 575 l 547 664 l 696 569 l 818 569 m 586 111 l 586 517 l 442 600 l 419 600 l 274 558 l 274 139 l 425 53 l 586 111 m 753 964 l 444 733 l 408 733 l 408 772 l 496 903 l 753 964 z "},"ô":{"ha":850,"x_min":42,"x_max":818,"o":"m 818 569 l 708 506 l 708 86 l 586 86 l 329 -11 l 151 86 l 42 86 l 42 94 l 51 94 l 151 147 l 151 575 l 268 575 l 547 664 l 696 569 l 818 569 m 586 111 l 586 517 l 442 600 l 419 600 l 274 558 l 274 139 l 425 53 l 586 111 m 674 739 l 376 858 l 213 733 l 183 761 l 351 925 l 515 961 l 674 769 l 674 739 z "},"õ":{"ha":850,"x_min":42,"x_max":818,"o":"m 818 569 l 708 506 l 708 86 l 586 86 l 329 -11 l 151 86 l 42 86 l 42 94 l 51 94 l 151 147 l 151 575 l 268 575 l 547 664 l 696 569 l 818 569 m 586 111 l 586 517 l 442 600 l 419 600 l 274 558 l 274 139 l 425 53 l 586 111 m 688 875 q 603 788 617 799 q 485 744 549 744 q 374 792 478 744 q 288 814 325 814 q 244 788 272 814 q 194 736 238 781 l 158 767 q 269 856 228 836 q 363 875 311 875 q 482 843 393 875 q 558 828 524 828 q 588 838 572 828 q 649 875 639 872 l 688 875 z "},"ö":{"ha":850,"x_min":42,"x_max":818,"o":"m 818 569 l 708 506 l 708 86 l 586 86 l 329 -11 l 151 86 l 42 86 l 42 94 l 51 94 l 151 147 l 151 575 l 268 575 l 547 664 l 696 569 l 818 569 m 586 111 l 586 517 l 442 600 l 419 600 l 274 558 l 274 139 l 425 53 l 586 111 m 731 831 l 579 719 l 444 836 l 547 914 l 653 825 l 701 864 l 731 831 m 406 797 l 303 719 l 199 808 l 144 767 l 118 797 l 269 914 l 406 797 z "},"÷":{"ha":918,"x_min":58,"x_max":835,"o":"m 547 600 q 517 537 547 565 q 444 508 488 508 q 370 535 401 508 q 339 600 339 563 q 370 665 339 638 q 444 692 401 692 q 518 665 489 692 q 547 600 547 639 m 835 281 l 58 281 l 58 381 l 835 381 l 835 281 m 547 64 q 517 2 547 29 q 444 -25 488 -25 q 369 0 400 -25 q 339 64 339 25 q 369 126 339 100 q 444 153 400 153 q 517 126 488 153 q 547 64 547 99 z "},"ø":{"ha":832,"x_min":22,"x_max":803,"o":"m 803 569 l 693 506 l 693 86 l 571 86 l 310 -11 l 258 14 l 181 -131 l 144 -114 l 225 33 l 135 86 l 22 86 l 22 94 l 36 94 l 135 147 l 135 575 l 251 575 l 528 664 l 564 639 l 615 736 l 657 719 l 596 617 l 681 569 l 803 569 m 513 547 l 425 600 l 403 600 l 258 558 l 258 139 l 278 125 l 513 547 m 571 106 l 571 517 l 542 531 l 306 106 l 413 50 l 571 106 z "},"ù":{"ha":788,"x_min":28,"x_max":754,"o":"m 754 569 l 644 506 l 644 128 l 522 128 l 376 86 l 261 -11 l 83 128 l 83 569 l 42 658 q 135 625 83 654 q 206 569 188 596 l 206 189 l 354 97 l 522 147 l 522 506 l 413 564 l 528 664 l 693 569 l 754 569 m 372 750 l 336 750 l 28 981 l 285 919 l 372 789 l 372 750 z "},"ú":{"ha":788,"x_min":42,"x_max":754,"o":"m 754 569 l 644 506 l 644 128 l 522 128 l 376 86 l 261 -11 l 83 128 l 83 569 l 42 658 q 135 625 83 654 q 206 569 188 596 l 206 189 l 354 97 l 522 147 l 522 506 l 413 564 l 528 664 l 693 569 l 754 569 m 649 947 l 340 717 l 304 717 l 304 756 l 392 886 l 649 947 z "},"û":{"ha":788,"x_min":42,"x_max":754,"o":"m 754 569 l 644 506 l 644 128 l 522 128 l 376 86 l 261 -11 l 83 128 l 83 569 l 42 658 q 135 625 83 654 q 206 569 188 596 l 206 189 l 354 97 l 522 147 l 522 506 l 413 564 l 528 664 l 693 569 l 754 569 m 607 747 l 310 867 l 146 742 l 117 769 l 285 933 l 449 969 l 607 778 l 607 747 z "},"ü":{"ha":788,"x_min":42,"x_max":754,"o":"m 754 569 l 644 506 l 644 128 l 522 128 l 376 86 l 261 -11 l 83 128 l 83 569 l 42 658 q 135 625 83 654 q 206 569 188 596 l 206 189 l 354 97 l 522 147 l 522 506 l 413 564 l 528 664 l 693 569 l 754 569 m 697 872 l 546 761 l 411 878 l 514 956 l 619 867 l 668 906 l 697 872 m 372 839 l 269 761 l 165 850 l 111 808 l 85 839 l 236 956 l 372 839 z "},"ý":{"ha":846,"x_min":42,"x_max":818,"o":"m 818 569 l 708 506 l 708 -61 l 661 -200 l 551 -294 l 435 -336 q 342 -272 401 -299 q 193 -242 272 -242 l 151 -244 q 215 -201 182 -214 q 300 -189 249 -189 l 322 -189 q 454 -210 406 -189 q 542 -283 503 -232 l 651 -189 l 651 -94 l 590 22 l 590 128 l 268 -11 l 103 86 l 42 86 l 42 94 l 51 94 l 151 147 l 151 506 l 103 558 l 42 558 l 154 664 l 271 569 l 271 147 l 367 94 l 442 94 l 590 147 l 590 506 l 481 564 l 596 664 l 757 569 l 818 569 m 690 947 l 382 717 l 346 717 l 346 756 l 433 886 l 690 947 z "},"þ":{"ha":886,"x_min":61,"x_max":842,"o":"m 842 569 l 732 506 l 732 86 l 608 86 l 349 -11 l 300 22 l 293 11 l 293 -136 l 354 -239 l 171 -336 l 171 86 l 61 86 l 61 94 l 74 94 l 171 147 l 171 903 l 129 992 l 158 986 l 232 953 l 293 903 l 293 528 l 306 528 l 561 611 l 615 664 l 779 569 l 842 569 m 608 108 l 608 517 l 510 558 l 444 558 l 293 506 l 293 139 l 451 47 l 608 108 z "},"ÿ":{"ha":846,"x_min":42,"x_max":818,"o":"m 818 569 l 708 506 l 708 -61 l 661 -200 l 551 -294 l 435 -336 q 342 -272 401 -299 q 193 -242 272 -242 l 151 -244 q 215 -201 182 -214 q 300 -189 249 -189 l 322 -189 q 454 -210 406 -189 q 542 -283 503 -232 l 651 -189 l 651 -94 l 590 22 l 590 128 l 268 -11 l 103 86 l 42 86 l 42 94 l 51 94 l 151 147 l 151 506 l 103 558 l 42 558 l 154 664 l 271 569 l 271 147 l 367 94 l 442 94 l 590 147 l 590 506 l 481 564 l 596 664 l 757 569 l 818 569 m 731 856 l 579 744 l 444 861 l 547 939 l 653 850 l 701 889 l 731 856 m 406 822 l 303 744 l 199 833 l 144 792 l 118 822 l 269 939 l 406 822 z "},"ı":{"ha":425,"x_min":44,"x_max":383,"o":"m 383 94 l 271 -11 l 154 86 l 154 506 l 44 569 l 222 664 l 383 564 l 274 506 l 274 136 l 335 94 l 383 94 z "},"ˇ":{"ha":686,"x_min":96,"x_max":586,"o":"m 586 1214 l 418 1050 l 254 1014 l 96 1206 l 96 1236 l 393 1117 l 557 1242 l 586 1214 z "},"Ł":{"ha":1135,"x_min":54,"x_max":1074,"o":"m 544 986 l 439 886 l 268 886 q 212 923 242 907 q 168 939 182 939 q 104 914 156 939 q 54 889 88 906 l 161 989 l 342 989 q 390 964 361 978 q 425 950 419 950 q 476 960 444 950 q 544 986 508 969 m 1074 94 l 964 -11 q 896 21 943 8 q 806 33 849 33 l 383 33 q 281 20 343 33 q 183 -11 219 7 q 352 85 226 33 q 547 136 478 136 l 832 136 l 832 939 l 754 939 l 632 833 l 632 690 l 799 782 l 799 714 l 632 622 l 632 400 q 592 328 624 364 q 513 275 560 293 l 513 556 l 329 456 l 329 303 q 283 228 319 264 q 210 183 247 192 l 210 390 l 63 310 l 63 378 l 210 458 l 210 611 q 251 689 214 642 q 329 758 288 736 l 329 524 l 513 624 l 513 706 l 593 825 l 732 947 l 832 989 l 976 989 l 1074 942 l 957 844 l 860 928 l 854 917 l 854 136 l 876 136 q 982 125 925 136 q 1074 94 1039 114 z "},"ł":{"ha":479,"x_min":36,"x_max":435,"o":"m 435 94 l 258 -11 l 93 86 l 36 86 l 36 94 l 44 94 l 142 147 l 142 436 l 42 367 l 42 428 l 142 496 l 142 803 l 93 889 l 261 989 l 261 578 l 374 656 l 369 594 l 261 519 l 261 147 l 361 94 l 435 94 z "},"∕":{"ha":1206,"x_min":129,"x_max":935,"o":"m 935 978 l 222 -28 l 129 -28 l 842 978 l 935 978 z "},"":{"ha":938,"x_min":42,"x_max":897,"o":"m 849 761 l 753 719 l 717 719 l 621 764 l 736 864 l 849 761 m 897 94 l 785 -11 l 668 86 l 668 506 l 558 569 l 736 664 l 897 564 l 788 506 l 788 136 l 849 94 l 897 94 m 713 886 l 699 886 l 615 844 l 481 844 l 376 939 l 335 886 l 335 672 l 554 672 l 554 653 l 335 653 l 335 147 l 432 94 l 493 94 l 329 -11 l 151 86 l 103 86 l 103 94 l 117 94 l 213 147 l 213 653 l 42 653 l 42 672 l 213 672 l 213 894 l 471 989 l 493 989 l 664 894 l 713 894 l 713 886 z "},"":{"ha":1017,"x_min":42,"x_max":963,"o":"m 713 886 l 699 886 l 615 844 l 481 844 l 376 939 l 335 886 l 335 672 l 554 672 l 554 653 l 335 653 l 335 147 l 432 94 l 493 94 l 329 -11 l 151 86 l 103 86 l 103 94 l 117 94 l 213 147 l 213 653 l 42 653 l 42 672 l 213 672 l 213 894 l 471 989 l 493 989 l 664 894 l 713 894 l 713 886 m 963 94 l 786 -11 l 621 86 l 564 86 l 564 94 l 572 94 l 669 147 l 669 803 l 621 889 l 789 989 l 789 147 l 889 94 l 963 94 z "},"Ž":{"ha":989,"x_min":42,"x_max":928,"o":"m 928 989 l 576 517 l 818 517 l 818 506 l 567 506 l 174 58 q 351 115 247 94 q 576 136 456 136 q 772 123 674 136 q 915 92 869 110 l 818 -11 q 701 22 772 11 q 490 33 629 33 q 238 24 329 33 q 42 -11 147 14 l 425 506 l 200 506 l 200 517 l 432 517 l 783 911 l 774 917 q 631 865 739 885 q 381 844 524 844 q 185 854 260 844 q 42 886 110 864 l 149 989 q 266 960 182 972 q 483 947 350 947 q 747 965 610 947 q 928 989 885 983 m 794 1256 l 626 1092 l 463 1056 l 304 1247 l 304 1278 l 601 1158 l 765 1283 l 794 1256 z "},"ž":{"ha":774,"x_min":36,"x_max":718,"o":"m 718 89 l 606 -11 q 506 24 558 14 q 386 33 453 33 q 214 22 310 33 q 42 -6 118 11 l 358 317 l 149 317 l 149 336 l 374 336 l 657 628 l 651 633 q 479 557 574 592 q 235 506 336 506 q 127 522 181 506 q 36 564 74 538 l 149 664 q 250 628 182 646 q 376 611 318 611 q 524 626 438 611 q 683 664 611 642 l 718 664 l 400 336 l 606 336 l 606 317 l 386 317 l 97 36 q 300 113 206 89 q 515 136 394 136 q 630 128 588 136 q 718 89 672 121 m 669 939 l 501 775 l 338 739 l 179 931 l 179 961 l 476 842 l 640 967 l 669 939 z "},"Ć":{"ha":1167,"x_min":-37,"x_max":1310,"o":"m 294 467 q 283 503 294 490 q 247 517 271 517 q 172 437 207 517 q 119 264 136 357 q 244 358 193 301 q 294 467 294 414 m 719 461 q 682 492 703 485 q 633 500 661 500 q 574 472 600 500 q 547 411 547 444 q 656 300 547 403 q 706 208 706 253 q 629 67 706 140 q 433 -17 542 -17 q 367 3 396 -17 q 324 67 339 22 q 220 10 271 31 q 128 -11 169 -11 q 46 24 76 -11 q 11 144 11 64 q 104 445 11 313 q 311 578 197 578 q 372 550 347 578 q 397 486 397 522 q 306 343 397 415 q 108 197 196 264 q 133 101 108 133 q 197 69 158 69 q 305 108 240 69 q 425 203 369 147 l 422 147 q 440 80 422 110 q 497 50 457 50 q 576 83 536 50 q 617 150 617 117 q 607 182 617 167 q 547 236 590 208 q 481 289 488 282 q 450 358 450 319 q 510 485 450 418 q 686 567 583 567 q 747 553 715 567 q 794 517 779 539 l 751 483 l 863 483 q 986 725 863 590 q 1213 831 1083 831 q 1254 828 1239 831 q 1310 819 1269 826 l 1254 744 l 1176 747 q 1053 710 1085 747 q 968 483 1014 665 l 1132 483 l 1088 428 l 957 428 q 882 157 901 214 q 756 -67 829 7 q 515 -158 663 -158 q 188 -143 372 -158 q -37 -119 3 -128 q -6 -71 -15 -86 q 18 -31 11 -46 q 203 -46 133 -42 q 540 -61 413 -61 q 696 -6 642 -61 q 779 168 743 43 q 851 428 815 293 l 676 428 l 719 461 z "}}}
